<svg version="1.1" xmlns="http://www.w3.org/2000/svg" xmlns:xlink="http://www.w3.org/1999/xlink" width="1145.0361328125" height="669"><defs/><g><g><rect fill="#C0C0C0" stroke="none" x="527" y="455" width="80.78271484375" height="88" transform="matrix(1 0 0 1 -254 -230)" fill-opacity="0.2"/></g><g><rect fill="#ffffff" stroke="none" x="520" y="448" width="80.78271484375" height="88" transform="matrix(1 0 0 1 -254 -230)"/></g><g><path fill="none" stroke="#000000" paint-order="fill stroke markers" d=" M 266 218 L 346.78271484375 218 L 346.78271484375 306 L 266 306 L 266 218 Z Z" stroke-miterlimit="10" stroke-dasharray=""/></g><g><path fill="none" stroke="#000000" paint-order="fill stroke markers" d=" M 266 243 L 346.78271484375 243" stroke-miterlimit="10" stroke-dasharray=""/></g><g><path fill="none" stroke="#000000" paint-order="fill stroke markers" d=" M 266 296 L 346.78271484375 296" stroke-miterlimit="10" stroke-dasharray=""/></g><g><g><path fill="none" stroke="none"/><text fill="#000000" stroke="none" font-family="Arial" font-size="13px" font-style="normal" font-weight="bold" text-decoration="undefined" x="560.891357421875" y="461.5" text-anchor="middle" dominant-baseline="central" transform="matrix(1 0 0 1 -254 -230)">Fotografia</text></g></g><g><g><path fill="none" stroke="none"/><text fill="#000000" stroke="none" font-family="Arial" font-size="13px" font-style="normal" font-weight="normal" text-decoration="undefined" x="525" y="484.5" text-anchor="start" dominant-baseline="central" transform="matrix(1 0 0 1 -254 -230)">+IdFoto</text></g></g><g><g><path fill="none" stroke="none"/><text fill="#000000" stroke="none" font-family="Arial" font-size="13px" font-style="normal" font-weight="normal" text-decoration="undefined" x="525" y="499.5" text-anchor="start" dominant-baseline="central" transform="matrix(1 0 0 1 -254 -230)">+Device</text></g></g><g><g><path fill="none" stroke="none"/><text fill="#000000" stroke="none" font-family="Arial" font-size="13px" font-style="normal" font-weight="normal" text-decoration="undefined" x="525" y="514.5" text-anchor="start" dominant-baseline="central" transform="matrix(1 0 0 1 -254 -230)">+Visibilità</text></g></g><g><rect fill="#C0C0C0" stroke="none" x="271" y="447" width="123.0771484375" height="88" transform="matrix(1 0 0 1 -254 -230)" fill-opacity="0.2"/></g><g><rect fill="#ffffff" stroke="none" x="264" y="440" width="123.0771484375" height="88" transform="matrix(1 0 0 1 -254 -230)"/></g><g><path fill="none" stroke="#000000" paint-order="fill stroke markers" d=" M 10 210 L 133.0771484375 210 L 133.0771484375 298 L 10 298 L 10 210 Z Z" stroke-miterlimit="10" stroke-dasharray=""/></g><g><path fill="none" stroke="#000000" paint-order="fill stroke markers" d=" M 10 235 L 133.0771484375 235" stroke-miterlimit="10" stroke-dasharray=""/></g><g><path fill="none" stroke="#000000" paint-order="fill stroke markers" d=" M 10 273 L 133.0771484375 273" stroke-miterlimit="10" stroke-dasharray=""/></g><g><g><path fill="none" stroke="none"/><text fill="#000000" stroke="none" font-family="Arial" font-size="13px" font-style="normal" font-weight="bold" text-decoration="undefined" x="326.03857421875" y="453.5" text-anchor="middle" dominant-baseline="central" transform="matrix(1 0 0 1 -254 -230)">Luogo</text></g></g><g><g><path fill="none" stroke="none"/><text fill="#000000" stroke="none" font-family="Arial" font-size="13px" font-style="normal" font-weight="normal" text-decoration="undefined" x="269" y="476.5" text-anchor="start" dominant-baseline="central" transform="matrix(1 0 0 1 -254 -230)">+Coordinate</text></g></g><g><g><path fill="none" stroke="none"/><text fill="#000000" stroke="none" font-family="Arial" font-size="13px" font-style="normal" font-weight="normal" text-decoration="undefined" x="269" y="491.5" text-anchor="start" dominant-baseline="central" transform="matrix(1 0 0 1 -254 -230)">+Nome Mnemonico</text></g></g><g><rect fill="#C0C0C0" stroke="none" x="631" y="783" width="80.47802734375" height="73" transform="matrix(1 0 0 1 -254 -230)" fill-opacity="0.2"/></g><g><rect fill="#ffffff" stroke="none" x="624" y="776" width="80.47802734375" height="73" transform="matrix(1 0 0 1 -254 -230)"/></g><g><path fill="none" stroke="#000000" paint-order="fill stroke markers" d=" M 370 546 L 450.47802734375 546 L 450.47802734375 619 L 370 619 L 370 546 Z Z" stroke-miterlimit="10" stroke-dasharray=""/></g><g><path fill="none" stroke="#000000" paint-order="fill stroke markers" d=" M 370 571 L 450.47802734375 571" stroke-miterlimit="10" stroke-dasharray=""/></g><g><path fill="none" stroke="#000000" paint-order="fill stroke markers" d=" M 370 609 L 450.47802734375 609" stroke-miterlimit="10" stroke-dasharray=""/></g><g><g><path fill="none" stroke="none"/><text fill="#000000" stroke="none" font-family="Arial" font-size="13px" font-style="normal" font-weight="bold" text-decoration="undefined" x="664.739013671875" y="789.5" text-anchor="middle" dominant-baseline="central" transform="matrix(1 0 0 1 -254 -230)">Soggetto</text></g></g><g><g><path fill="none" stroke="none"/><text fill="#000000" stroke="none" font-family="Arial" font-size="13px" font-style="normal" font-weight="normal" text-decoration="undefined" x="629" y="812.5" text-anchor="start" dominant-baseline="central" transform="matrix(1 0 0 1 -254 -230)">+IdSoggetto</text></g></g><g><g><path fill="none" stroke="none"/><text fill="#000000" stroke="none" font-family="Arial" font-size="13px" font-style="normal" font-weight="normal" text-decoration="undefined" x="629" y="827.5" text-anchor="start" dominant-baseline="central" transform="matrix(1 0 0 1 -254 -230)">+Categoria</text></g></g><g><rect fill="#C0C0C0" stroke="none" x="1231" y="471" width="73.2353515625" height="58" transform="matrix(1 0 0 1 -254 -230)" fill-opacity="0.2"/></g><g><rect fill="#ffffff" stroke="none" x="1224" y="464" width="73.2353515625" height="58" transform="matrix(1 0 0 1 -254 -230)"/></g><g><path fill="none" stroke="#000000" paint-order="fill stroke markers" d=" M 970 234 L 1043.2353515625 234 L 1043.2353515625 292 L 970 292 L 970 234 Z Z" stroke-miterlimit="10" stroke-dasharray=""/></g><g><path fill="none" stroke="#000000" paint-order="fill stroke markers" d=" M 970 259 L 1043.2353515625 259" stroke-miterlimit="10" stroke-dasharray=""/></g><g><path fill="none" stroke="#000000" paint-order="fill stroke markers" d=" M 970 282 L 1043.2353515625 282" stroke-miterlimit="10" stroke-dasharray=""/></g><g><g><path fill="none" stroke="none"/><text fill="#000000" stroke="none" font-family="Arial" font-size="13px" font-style="italic" font-weight="bold" text-decoration="undefined" x="1261.11767578125" y="477.5" text-anchor="middle" dominant-baseline="central" transform="matrix(1 0 0 1 -254 -230)">Galleria</text></g></g><g><g><path fill="none" stroke="none"/><text fill="#000000" stroke="none" font-family="Arial" font-size="13px" font-style="normal" font-weight="normal" text-decoration="undefined" x="1229" y="500.5" text-anchor="start" dominant-baseline="central" transform="matrix(1 0 0 1 -254 -230)">+IdGalleria</text></g></g><g><rect fill="#C0C0C0" stroke="none" x="1271" y="607" width="124.0361328125" height="45" transform="matrix(1 0 0 1 -254 -230)" fill-opacity="0.2"/></g><g><rect fill="#ffffff" stroke="none" x="1264" y="600" width="124.0361328125" height="45" transform="matrix(1 0 0 1 -254 -230)"/></g><g><path fill="none" stroke="#000000" paint-order="fill stroke markers" d=" M 1010 370 L 1134.0361328125 370 L 1134.0361328125 415 L 1010 415 L 1010 370 Z Z" stroke-miterlimit="10" stroke-dasharray=""/></g><g><path fill="none" stroke="#000000" paint-order="fill stroke markers" d=" M 1010 395 L 1134.0361328125 395" stroke-miterlimit="10" stroke-dasharray=""/></g><g><path fill="none" stroke="#000000" paint-order="fill stroke markers" d=" M 1010 405 L 1134.0361328125 405" stroke-miterlimit="10" stroke-dasharray=""/></g><g><g><path fill="none" stroke="none"/><text fill="#000000" stroke="none" font-family="Arial" font-size="13px" font-style="normal" font-weight="bold" text-decoration="undefined" x="1326.51806640625" y="613.5" text-anchor="middle" dominant-baseline="central" transform="matrix(1 0 0 1 -254 -230)">Galleria privata</text></g></g><g><rect fill="#C0C0C0" stroke="none" x="1135" y="607" width="121.85211181640625" height="58" transform="matrix(1 0 0 1 -254 -230)" fill-opacity="0.2"/></g><g><rect fill="#ffffff" stroke="none" x="1128" y="600" width="121.85211181640625" height="58" transform="matrix(1 0 0 1 -254 -230)"/></g><g><path fill="none" stroke="#000000" paint-order="fill stroke markers" d=" M 874 370 L 995.8521118164062 370 L 995.8521118164062 428 L 874 428 L 874 370 Z Z" stroke-miterlimit="10" stroke-dasharray=""/></g><g><path fill="none" stroke="#000000" paint-order="fill stroke markers" d=" M 874 395 L 995.8521118164062 395" stroke-miterlimit="10" stroke-dasharray=""/></g><g><path fill="none" stroke="#000000" paint-order="fill stroke markers" d=" M 874 418 L 995.8521118164062 418" stroke-miterlimit="10" stroke-dasharray=""/></g><g><g><path fill="none" stroke="none"/><text fill="#000000" stroke="none" font-family="Arial" font-size="13px" font-style="normal" font-weight="bold" text-decoration="undefined" x="1189.4260559082031" y="613.5" text-anchor="middle" dominant-baseline="central" transform="matrix(1 0 0 1 -254 -230)">Galleria condivisa</text></g></g><g><g><path fill="none" stroke="none"/><text fill="#000000" stroke="none" font-family="Arial" font-size="13px" font-style="normal" font-weight="normal" text-decoration="undefined" x="1133" y="636.5" text-anchor="start" dominant-baseline="central" transform="matrix(1 0 0 1 -254 -230)">+Partecipanti</text></g></g><g><rect fill="#C0C0C0" stroke="none" x="535" y="247" width="73.2353515625" height="58" transform="matrix(1 0 0 1 -254 -230)" fill-opacity="0.2"/></g><g><rect fill="#ffffff" stroke="none" x="528" y="240" width="73.2353515625" height="58" transform="matrix(1 0 0 1 -254 -230)"/></g><g><path fill="none" stroke="#000000" paint-order="fill stroke markers" d=" M 274 10 L 347.2353515625 10 L 347.2353515625 68 L 274 68 L 274 10 Z Z" stroke-miterlimit="10" stroke-dasharray=""/></g><g><path fill="none" stroke="#000000" paint-order="fill stroke markers" d=" M 274 35 L 347.2353515625 35" stroke-miterlimit="10" stroke-dasharray=""/></g><g><path fill="none" stroke="#000000" paint-order="fill stroke markers" d=" M 274 58 L 347.2353515625 58" stroke-miterlimit="10" stroke-dasharray=""/></g><g><g><path fill="none" stroke="none"/><text fill="#000000" stroke="none" font-family="Arial" font-size="13px" font-style="normal" font-weight="bold" text-decoration="undefined" x="565.11767578125" y="253.5" text-anchor="middle" dominant-baseline="central" transform="matrix(1 0 0 1 -254 -230)">Video</text></g></g><g><g><path fill="none" stroke="none"/><text fill="#000000" stroke="none" font-family="Arial" font-size="13px" font-style="normal" font-weight="normal" text-decoration="undefined" x="533" y="276.5" text-anchor="start" dominant-baseline="central" transform="matrix(1 0 0 1 -254 -230)">+IdVideo</text></g></g><g><path fill="none" stroke="#000000" paint-order="fill stroke markers" d=" M 1060 369 L 1021 293" stroke-miterlimit="10" stroke-dasharray=""/></g><g><path fill="#FFFFFF" stroke="none" paint-order="stroke fill markers" d=" M 1037.77000417899 307.2396263938582 L 1021 293 L 1022.7892472908304 314.9271200601505"/></g><g><path fill="none" stroke="#000000" paint-order="fill stroke markers" d=" M 1037.77000417899 307.2396263938582 L 1021 293 L 1022.7892472908304 314.9271200601505 L 1037.77000417899 307.2396263938582" stroke-miterlimit="10" stroke-dasharray=""/></g><g><path fill="none" stroke="#000000" paint-order="fill stroke markers" d=" M 950 369 L 990 293" stroke-miterlimit="10" stroke-dasharray=""/></g><g><path fill="#FFFFFF" stroke="none" paint-order="stroke fill markers" d=" M 987.9836988135257 314.90740809692977 L 990 293 L 973.0833829345695 307.06513658168956"/></g><g><path fill="none" stroke="#000000" paint-order="fill stroke markers" d=" M 987.9836988135257 314.90740809692977 L 990 293 L 973.0833829345695 307.06513658168956 L 987.9836988135257 314.90740809692977" stroke-miterlimit="10" stroke-dasharray=""/></g><g><rect fill="#C0C0C0" stroke="none" x="783" y="439" width="77.55810546875" height="73" transform="matrix(1 0 0 1 -254 -230)" fill-opacity="0.2"/></g><g><rect fill="#ffffff" stroke="none" x="776" y="432" width="77.55810546875" height="73" transform="matrix(1 0 0 1 -254 -230)"/></g><g><path fill="none" stroke="#000000" paint-order="fill stroke markers" d=" M 522 202 L 599.55810546875 202 L 599.55810546875 275 L 522 275 L 522 202 Z Z" stroke-miterlimit="10" stroke-dasharray=""/></g><g><path fill="none" stroke="#000000" paint-order="fill stroke markers" d=" M 522 227 L 599.55810546875 227" stroke-miterlimit="10" stroke-dasharray=""/></g><g><path fill="none" stroke="#000000" paint-order="fill stroke markers" d=" M 522 265 L 599.55810546875 265" stroke-miterlimit="10" stroke-dasharray=""/></g><g><g><path fill="none" stroke="none"/><text fill="#000000" stroke="none" font-family="Arial" font-size="13px" font-style="normal" font-weight="bold" text-decoration="undefined" x="815.279052734375" y="445.5" text-anchor="middle" dominant-baseline="central" transform="matrix(1 0 0 1 -254 -230)">Utente</text></g></g><g><g><path fill="none" stroke="none"/><text fill="#000000" stroke="none" font-family="Arial" font-size="13px" font-style="normal" font-weight="normal" text-decoration="undefined" x="781" y="468.5" text-anchor="start" dominant-baseline="central" transform="matrix(1 0 0 1 -254 -230)">+IdUtente</text></g></g><g><g><path fill="none" stroke="none"/><text fill="#000000" stroke="none" font-family="Arial" font-size="13px" font-style="normal" font-weight="normal" text-decoration="undefined" x="781" y="483.5" text-anchor="start" dominant-baseline="central" transform="matrix(1 0 0 1 -254 -230)">+Username</text></g></g><g><path fill="none" stroke="#000000" paint-order="fill stroke markers" d=" M 970 254 L 600 254" stroke-miterlimit="10" stroke-dasharray=""/></g><g><path fill="#FFFFFF" stroke="none" paint-order="stroke fill markers" d=" M 610.1626748576241 249.790482243984 L 600 254 L 610.1626748576241 258.209517756016 L 622 254"/></g><g><path fill="none" stroke="#000000" paint-order="fill stroke markers" d=" M 610.1626748576241 249.790482243984 L 600 254 L 610.1626748576241 258.209517756016 L 622 254 L 610.1626748576241 249.790482243984" stroke-miterlimit="10" stroke-dasharray=""/></g><g><rect fill="#ffffff" stroke="none" x="1008" y="493" width="61.07080078125" height="13" transform="matrix(1 0 0 1 -254 -230)"/></g><g><g><path fill="none" stroke="none"/><text fill="#000000" stroke="none" font-family="Arial" font-size="13px" font-style="normal" font-weight="normal" text-decoration="undefined" x="1038.535400390625" y="499.5" text-anchor="middle" dominant-baseline="central" transform="matrix(1 0 0 1 -254 -230)">+Possiede</text></g></g><g><path fill="none" stroke="#000000" paint-order="fill stroke markers" d=" M 570 275 L 570 650 L 570 650 A 8 8 0 0 0 578 658 L 945 658 L 945 658 A 8 8 0 0 0 953 650 L 953 428" stroke-miterlimit="10" stroke-dasharray=""/></g><g><rect fill="#ffffff" stroke="none" x="984" y="867" width="62.51171875" height="13" transform="matrix(1 0 0 1 -254 -230)"/></g><g><g><path fill="none" stroke="none"/><text fill="#000000" stroke="none" font-family="Arial" font-size="13px" font-style="normal" font-weight="normal" text-decoration="undefined" x="1015.255859375" y="873.5" text-anchor="middle" dominant-baseline="central" transform="matrix(1 0 0 1 -254 -230)">+Partecipa</text></g></g><g><rect fill="#ffffff" stroke="none" x="832" y="519" width="19.5126953125" height="13" transform="matrix(1 0 0 1 -254 -230)"/></g><g><g><path fill="none" stroke="none"/><text fill="#000000" stroke="none" font-family="Arial" font-size="13px" font-style="normal" font-weight="normal" text-decoration="undefined" x="841.75634765625" y="525.5" text-anchor="middle" dominant-baseline="central" transform="matrix(1 0 0 1 -254 -230)">1..*</text></g></g><g><rect fill="#ffffff" stroke="none" x="1210" y="673" width="19.5126953125" height="13" transform="matrix(1 0 0 1 -254 -230)"/></g><g><g><path fill="none" stroke="none"/><text fill="#000000" stroke="none" font-family="Arial" font-size="13px" font-style="normal" font-weight="normal" text-decoration="undefined" x="1219.75634765625" y="679.5" text-anchor="middle" dominant-baseline="central" transform="matrix(1 0 0 1 -254 -230)">0..*</text></g></g><g><path fill="none" stroke="#000000" paint-order="fill stroke markers" d=" M 347 258 L 522 258" stroke-miterlimit="10" stroke-dasharray=""/></g><g><rect fill="#ffffff" stroke="none" x="666" y="467" width="44.4462890625" height="13" transform="matrix(1 0 0 1 -254 -230)"/></g><g><g><path fill="none" stroke="none"/><text fill="#000000" stroke="none" font-family="Arial" font-size="13px" font-style="normal" font-weight="normal" text-decoration="undefined" x="688.22314453125" y="473.5" text-anchor="middle" dominant-baseline="central" transform="matrix(1 0 0 1 -254 -230)">+Scatta</text></g></g><g><rect fill="#ffffff" stroke="none" x="613" y="494" width="19.5126953125" height="13" transform="matrix(1 0 0 1 -254 -230)"/></g><g><g><path fill="none" stroke="none"/><text fill="#000000" stroke="none" font-family="Arial" font-size="13px" font-style="normal" font-weight="normal" text-decoration="undefined" x="622.75634765625" y="500.5" text-anchor="middle" dominant-baseline="central" transform="matrix(1 0 0 1 -254 -230)">0..*</text></g></g><g><rect fill="#ffffff" stroke="none" x="751" y="494" width="7.22998046875" height="13" transform="matrix(1 0 0 1 -254 -230)"/></g><g><g><path fill="none" stroke="none"/><text fill="#000000" stroke="none" font-family="Arial" font-size="13px" font-style="normal" font-weight="normal" text-decoration="undefined" x="754.614990234375" y="500.5" text-anchor="middle" dominant-baseline="central" transform="matrix(1 0 0 1 -254 -230)">1</text></g></g><g><path fill="none" stroke="#000000" paint-order="fill stroke markers" d=" M 322 218 L 322 178 L 322 178 A 8 8 0 0 1 330 170 L 986 170 L 986 170 A 8 8 0 0 1 994 178 L 994 234" stroke-miterlimit="10" stroke-dasharray=""/></g><g><path fill="#FFFFFF" stroke="none" paint-order="stroke fill markers" d=" M 989.7904822439841 223.83732514237585 L 994 234 L 998.2095177560159 223.83732514237585 L 994 212"/></g><g><path fill="none" stroke="#000000" paint-order="fill stroke markers" d=" M 989.7904822439841 223.83732514237585 L 994 234 L 998.2095177560159 223.83732514237585 L 994 212 L 989.7904822439841 223.83732514237585" stroke-miterlimit="10" stroke-dasharray=""/></g><g><rect fill="#ffffff" stroke="none" x="883" y="379" width="59.6298828125" height="13" transform="matrix(1 0 0 1 -254 -230)"/></g><g><g><path fill="none" stroke="none"/><text fill="#000000" stroke="none" font-family="Arial" font-size="13px" font-style="normal" font-weight="normal" text-decoration="undefined" x="912.81494140625" y="385.5" text-anchor="middle" dominant-baseline="central" transform="matrix(1 0 0 1 -254 -230)">+Contiene</text></g></g><g><path fill="none" stroke="#000000" paint-order="fill stroke markers" d=" M 306 306 L 306 562 L 306 562 A 8 8 0 0 0 314 570 L 370 570" stroke-miterlimit="10" stroke-dasharray=""/></g><g><rect fill="#ffffff" stroke="none" x="521" y="688" width="82.03076171875" height="13" transform="matrix(1 0 0 1 -254 -230)"/></g><g><g><path fill="none" stroke="none"/><text fill="#000000" stroke="none" font-family="Arial" font-size="13px" font-style="normal" font-weight="normal" text-decoration="undefined" x="562.015380859375" y="694.5" text-anchor="middle" dominant-baseline="central" transform="matrix(1 0 0 1 -254 -230)">+Mostra</text></g></g><g><rect fill="#ffffff" stroke="none" x="538" y="551" width="19.5126953125" height="13" transform="matrix(1 0 0 1 -254 -230)"/></g><g><g><path fill="none" stroke="none"/><text fill="#000000" stroke="none" font-family="Arial" font-size="13px" font-style="normal" font-weight="normal" text-decoration="undefined" x="547.75634765625" y="557.5" text-anchor="middle" dominant-baseline="central" transform="matrix(1 0 0 1 -254 -230)">0..*</text></g></g><g><rect fill="#ffffff" stroke="none" x="593" y="806" width="19.5126953125" height="13" transform="matrix(1 0 0 1 -254 -230)"/></g><g><g><path fill="none" stroke="none"/><text fill="#000000" stroke="none" font-family="Arial" font-size="13px" font-style="normal" font-weight="normal" text-decoration="undefined" x="602.75634765625" y="812.5" text-anchor="middle" dominant-baseline="central" transform="matrix(1 0 0 1 -254 -230)">1..*</text></g></g><g><path fill="none" stroke="#000000" paint-order="fill stroke markers" d=" M 402 546 L 402 370 L 402 370 A 8 8 0 0 1 410 362 L 538 362 L 538 362 A 8 8 0 0 0 546 354 L 546 275" stroke-miterlimit="10" stroke-dasharray=""/></g><g><rect fill="#ffffff" stroke="none" x="687" y="571" width="82.03076171875" height="13" transform="matrix(1 0 0 1 -254 -230)"/></g><g><g><path fill="none" stroke="none"/><text fill="#000000" stroke="none" font-family="Arial" font-size="13px" font-style="normal" font-weight="normal" text-decoration="undefined" x="728.015380859375" y="577.5" text-anchor="middle" dominant-baseline="central" transform="matrix(1 0 0 1 -254 -230)">+Rappresenta</text></g></g><g><rect fill="#ffffff" stroke="none" x="658" y="748" width="21.68359375" height="13" transform="matrix(1 0 0 1 -254 -230)"/></g><g><g><path fill="none" stroke="none"/><text fill="#000000" stroke="none" font-family="Arial" font-size="13px" font-style="normal" font-weight="normal" text-decoration="undefined" x="668.841796875" y="754.5" text-anchor="middle" dominant-baseline="central" transform="matrix(1 0 0 1 -254 -230)">0..1</text></g></g><g><rect fill="#ffffff" stroke="none" x="776" y="520" width="19.5126953125" height="13" transform="matrix(1 0 0 1 -254 -230)"/></g><g><g><path fill="none" stroke="none"/><text fill="#000000" stroke="none" font-family="Arial" font-size="13px" font-style="normal" font-weight="normal" text-decoration="undefined" x="785.75634765625" y="526.5" text-anchor="middle" dominant-baseline="central" transform="matrix(1 0 0 1 -254 -230)">1</text></g></g><g><path fill="none" stroke="#000000" paint-order="fill stroke markers" d=" M 309 68 L 309 218" stroke-miterlimit="10" stroke-dasharray=""/></g><g><rect fill="#ffffff" stroke="none" x="539" y="347" width="63.958984375" height="13" transform="matrix(1 0 0 1 -254 -230)"/></g><g><g><path fill="none" stroke="none"/><text fill="#000000" stroke="none" font-family="Arial" font-size="13px" font-style="normal" font-weight="normal" text-decoration="undefined" x="570.9794921875" y="353.5" text-anchor="middle" dominant-baseline="central" transform="matrix(1 0 0 1 -254 -230)">+Compone</text></g></g><g><rect fill="#ffffff" stroke="none" x="541" y="313" width="19.5126953125" height="13" transform="matrix(1 0 0 1 -254 -230)"/></g><g><g><path fill="none" stroke="none"/><text fill="#000000" stroke="none" font-family="Arial" font-size="13px" font-style="normal" font-weight="normal" text-decoration="undefined" x="550.75634765625" y="319.5" text-anchor="middle" dominant-baseline="central" transform="matrix(1 0 0 1 -254 -230)">0..*</text></g></g><g><rect fill="#ffffff" stroke="none" x="541" y="420" width="19.5126953125" height="13" transform="matrix(1 0 0 1 -254 -230)"/></g><g><g><path fill="none" stroke="none"/><text fill="#000000" stroke="none" font-family="Arial" font-size="13px" font-style="normal" font-weight="normal" text-decoration="undefined" x="550.75634765625" y="426.5" text-anchor="middle" dominant-baseline="central" transform="matrix(1 0 0 1 -254 -230)">1..*</text></g></g><g><path fill="none" stroke="#000000" paint-order="fill stroke markers" d=" M 347 42 L 1082 42 L 1082 42 A 8 8 0 0 1 1090 50 L 1090 370" stroke-miterlimit="10" stroke-dasharray=""/></g><g><rect fill="#ffffff" stroke="none" x="1016" y="255" width="64.6826171875" height="13" transform="matrix(1 0 0 1 -254 -230)"/></g><g><g><path fill="none" stroke="none"/><text fill="#000000" stroke="none" font-family="Arial" font-size="13px" font-style="normal" font-weight="normal" text-decoration="undefined" x="1048.34130859375" y="261.5" text-anchor="middle" dominant-baseline="central" transform="matrix(1 0 0 1 -254 -230)">+Salvato in</text></g></g><g><rect fill="#ffffff" stroke="none" x="613" y="278" width="19.5126953125" height="13" transform="matrix(1 0 0 1 -254 -230)"/></g><g><g><path fill="none" stroke="none"/><text fill="#000000" stroke="none" font-family="Arial" font-size="13px" font-style="normal" font-weight="normal" text-decoration="undefined" x="622.75634765625" y="284.5" text-anchor="middle" dominant-baseline="central" transform="matrix(1 0 0 1 -254 -230)">0..*</text></g></g><g><rect fill="#ffffff" stroke="none" x="1328" y="572" width="7.22998046875" height="13" transform="matrix(1 0 0 1 -254 -230)"/></g><g><g><path fill="none" stroke="none"/><text fill="#000000" stroke="none" font-family="Arial" font-size="13px" font-style="normal" font-weight="normal" text-decoration="undefined" x="1331.614990234375" y="578.5" text-anchor="middle" dominant-baseline="central" transform="matrix(1 0 0 1 -254 -230)">1</text></g></g><g><path fill="none" stroke="#000000" paint-order="fill stroke markers" d=" M 266 261 L 133 261" stroke-miterlimit="10" stroke-dasharray=""/></g><g><rect fill="#ffffff" stroke="none" x="422" y="500" width="60.10595703125" height="13" transform="matrix(1 0 0 1 -254 -230)"/></g><g><g><path fill="none" stroke="none"/><text fill="#000000" stroke="none" font-family="Arial" font-size="13px" font-style="normal" font-weight="normal" text-decoration="undefined" x="452.052978515625" y="506.5" text-anchor="middle" dominant-baseline="central" transform="matrix(1 0 0 1 -254 -230)">+Raffigura</text></g></g><g><rect fill="#ffffff" stroke="none" x="489" y="472" width="19.5126953125" height="13" transform="matrix(1 0 0 1 -254 -230)"/></g><g><g><path fill="none" stroke="none"/><text fill="#000000" stroke="none" font-family="Arial" font-size="13px" font-style="normal" font-weight="normal" text-decoration="undefined" x="498.75634765625" y="478.5" text-anchor="middle" dominant-baseline="central" transform="matrix(1 0 0 1 -254 -230)">0..*</text></g></g><g><rect fill="#ffffff" stroke="none" x="398" y="472" width="21.68359375" height="13" transform="matrix(1 0 0 1 -254 -230)"/></g><g><g><path fill="none" stroke="none"/><text fill="#000000" stroke="none" font-family="Arial" font-size="13px" font-style="normal" font-weight="normal" text-decoration="undefined" x="408.841796875" y="478.5" text-anchor="middle" dominant-baseline="central" transform="matrix(1 0 0 1 -254 -230)">0..1</text></g></g></g></svg>