<svg xmlns="http://www.w3.org/2000/svg" xmlns:xlink="http://www.w3.org/1999/xlink" contentStyleType="text/css" data-diagram-type="SEQUENCE" height="1823px" preserveAspectRatio="none" style="width:1606px;height:1823px;background:#FFFFFF;" version="1.1" viewBox="0 0 1606 1823" width="1606px" zoomAndPan="magnify"><?plantuml 1.2026.3beta5?><defs/><g><rect fill="none" height="1567.3203" style="stroke:#000000;stroke-width:1.5;" width="1458.1226" x="132.3203" y="156.5625"/><rect fill="none" height="176.6641" style="stroke:#000000;stroke-width:1.5;" width="236.4468" x="290.0288" y="266.7656"/><rect fill="none" height="59.2656" style="stroke:#000000;stroke-width:1.5;" width="214.7886" x="300.0288" y="377.1641"/><rect fill="none" height="88.3984" style="stroke:#000000;stroke-width:1.5;" width="389.3701" x="300.0288" y="499.5625"/><rect fill="none" height="46.2656" style="stroke:#000000;stroke-width:1.5;" width="260.8813" x="142.3203" y="631.0938"/><rect fill="none" height="46.2656" style="stroke:#000000;stroke-width:1.5;" width="754.79" x="300.0288" y="733.4922"/><rect fill="none" height="610.0625" style="stroke:#000000;stroke-width:1.5;" width="1310.4141" x="270.0288" y="835.8906"/><rect fill="none" height="578.9297" style="stroke:#000000;stroke-width:1.5;" width="1290.4141" x="280.0288" y="860.0234"/><rect fill="none" height="476.5313" style="stroke:#000000;stroke-width:1.5;" width="1270.4141" x="290.0288" y="884.1563"/><rect fill="none" height="88.3984" style="stroke:#000000;stroke-width:1.5;" width="933.8906" x="300.0288" y="992.5547"/><rect fill="none" height="130.5313" style="stroke:#000000;stroke-width:1.5;" width="933.8906" x="300.0288" y="1223.1563"/><rect fill="none" height="59.2656" style="stroke:#000000;stroke-width:1.5;" width="274.8984" x="300.0288" y="1459.9531"/><g class="participant-lifeline" data-entity-uid="part1" data-qualified-name="Utente" data-source-line="1" id="part1-lifeline"><g><title>Utente</title><rect fill="#000000" fill-opacity="0.00000" height="1659.5859" width="8" x="27.6626" y="81.2969"/><line style="stroke:#181818;stroke-width:0.5;stroke-dasharray:5,5;" x1="31" x2="31" y1="81.2969" y2="1740.8828"/></g></g><g class="participant-lifeline" data-entity-uid="part2" data-qualified-name="GUI" data-source-line="3" id="part2-lifeline"><g><title>GUI</title><rect fill="#000000" fill-opacity="0.00000" height="1659.5859" width="8" x="167.9326" y="81.2969"/><line style="stroke:#181818;stroke-width:0.5;stroke-dasharray:5,5;" x1="171.3203" x2="171.3203" y1="81.2969" y2="1740.8828"/></g></g><g class="participant-lifeline" data-entity-uid="part3" data-qualified-name="Controller" data-source-line="4" id="part3-lifeline"><g><title>Controller</title><rect fill="#000000" fill-opacity="0.00000" height="1659.5859" width="8" x="347.6152" y="81.2969"/><line style="stroke:#181818;stroke-width:0.5;stroke-dasharray:5,5;" x1="351.0288" x2="351.0288" y1="81.2969" y2="1740.8828"/></g></g><g class="participant-lifeline" data-entity-uid="part4" data-qualified-name="LuogoPostgresDAO" data-source-line="5" id="part4-lifeline"><g><title>LuogoPostgresDAO</title><rect fill="#000000" fill-opacity="0.00000" height="1659.5859" width="8" x="601.1948" y="81.2969"/><line style="stroke:#181818;stroke-width:0.5;stroke-dasharray:5,5;" x1="604.9907" x2="604.9907" y1="81.2969" y2="1740.8828"/></g></g><g class="participant-lifeline" data-entity-uid="part5" data-qualified-name="FotografiaPostgresDAO" data-source-line="6" id="part5-lifeline"><g><title>FotografiaPostgresDAO</title><rect fill="#000000" fill-opacity="0.00000" height="1659.5859" width="8" x="773.9038" y="81.2969"/><line style="stroke:#181818;stroke-width:0.5;stroke-dasharray:5,5;" x1="777.3989" x2="777.3989" y1="81.2969" y2="1740.8828"/></g></g><g class="participant-lifeline" data-entity-uid="part6" data-qualified-name="ContienePostgresDAO" data-source-line="7" id="part6-lifeline"><g><title>ContienePostgresDAO</title><rect fill="#000000" fill-opacity="0.00000" height="1659.5859" width="8" x="956.6138" y="81.2969"/><line style="stroke:#181818;stroke-width:0.5;stroke-dasharray:5,5;" x1="960.4087" x2="960.4087" y1="81.2969" y2="1740.8828"/></g></g><g class="participant-lifeline" data-entity-uid="part7" data-qualified-name="SoggettoPostgresDAO" data-source-line="8" id="part7-lifeline"><g><title>SoggettoPostgresDAO</title><rect fill="#000000" fill-opacity="0.00000" height="1659.5859" width="8" x="1135.3691" y="81.2969"/><line style="stroke:#181818;stroke-width:0.5;stroke-dasharray:5,5;" x1="1138.8188" x2="1138.8188" y1="81.2969" y2="1740.8828"/></g></g><g class="participant-lifeline" data-entity-uid="part8" data-qualified-name="MostraPostgresDAO" data-source-line="9" id="part8-lifeline"><g><title>MostraPostgresDAO</title><rect fill="#000000" fill-opacity="0.00000" height="1659.5859" width="8" x="1306.6597" y="81.2969"/><line style="stroke:#181818;stroke-width:0.5;stroke-dasharray:5,5;" x1="1309.9194" x2="1309.9194" y1="81.2969" y2="1740.8828"/></g></g><g class="participant-lifeline" data-entity-uid="part9" data-qualified-name="UtentePostgresDAO" data-source-line="10" id="part9-lifeline"><g><title>UtentePostgresDAO</title><rect fill="#000000" fill-opacity="0.00000" height="1659.5859" width="8" x="1469.9214" y="81.2969"/><line style="stroke:#181818;stroke-width:0.5;stroke-dasharray:5,5;" x1="1473.3999" x2="1473.3999" y1="81.2969" y2="1740.8828"/></g></g><g class="participant participant-head" data-entity-uid="part1" data-qualified-name="Utente" data-source-line="1" id="part1-head"><text fill="#000000" font-family="sans-serif" font-size="14" lengthAdjust="spacing" textLength="47.3252" x="5" y="77.9951">Utente</text><ellipse cx="31.6626" cy="13.5" fill="#E2E2F0" rx="8" ry="8" style="stroke:#181818;stroke-width:0.5;"/><path d="M31.6626,21.5 L31.6626,48.5 M18.6626,29.5 L44.6626,29.5 M31.6626,48.5 L18.6626,63.5 M31.6626,48.5 L44.6626,63.5" fill="none" style="stroke:#181818;stroke-width:0.5;"/></g><g class="participant participant-tail" data-entity-uid="part1" data-qualified-name="Utente" data-source-line="1" id="part1-tail"><text fill="#000000" font-family="sans-serif" font-size="14" lengthAdjust="spacing" textLength="47.3252" x="5" y="1752.8779">Utente</text><ellipse cx="31.6626" cy="1764.6797" fill="#E2E2F0" rx="8" ry="8" style="stroke:#181818;stroke-width:0.5;"/><path d="M31.6626,1772.6797 L31.6626,1799.6797 M18.6626,1780.6797 L44.6626,1780.6797 M31.6626,1799.6797 L18.6626,1814.6797 M31.6626,1799.6797 L44.6626,1814.6797" fill="none" style="stroke:#181818;stroke-width:0.5;"/></g><g class="participant participant-head" data-entity-uid="part2" data-qualified-name="GUI" data-source-line="3" id="part2-head"><rect fill="#E2E2F0" height="30.2969" rx="2.5" ry="2.5" style="stroke:#181818;stroke-width:0.5;" width="39.2246" x="152.3203" y="50"/><text fill="#000000" font-family="sans-serif" font-size="14" lengthAdjust="spacing" textLength="25.2246" x="159.3203" y="69.9951">GUI</text></g><g class="participant participant-tail" data-entity-uid="part2" data-qualified-name="GUI" data-source-line="3" id="part2-tail"><rect fill="#E2E2F0" height="30.2969" rx="2.5" ry="2.5" style="stroke:#181818;stroke-width:0.5;" width="39.2246" x="152.3203" y="1739.8828"/><text fill="#000000" font-family="sans-serif" font-size="14" lengthAdjust="spacing" textLength="25.2246" x="159.3203" y="1759.8779">GUI</text></g><g class="participant participant-head" data-entity-uid="part3" data-qualified-name="Controller" data-source-line="4" id="part3-head"><rect fill="#E2E2F0" height="30.2969" rx="2.5" ry="2.5" style="stroke:#181818;stroke-width:0.5;" width="83.1729" x="310.0288" y="50"/><text fill="#000000" font-family="sans-serif" font-size="14" lengthAdjust="spacing" textLength="69.1729" x="317.0288" y="69.9951">Controller</text></g><g class="participant participant-tail" data-entity-uid="part3" data-qualified-name="Controller" data-source-line="4" id="part3-tail"><rect fill="#E2E2F0" height="30.2969" rx="2.5" ry="2.5" style="stroke:#181818;stroke-width:0.5;" width="83.1729" x="310.0288" y="1739.8828"/><text fill="#000000" font-family="sans-serif" font-size="14" lengthAdjust="spacing" textLength="69.1729" x="317.0288" y="1759.8779">Controller</text></g><g class="participant participant-head" data-entity-uid="part4" data-qualified-name="LuogoPostgresDAO" data-source-line="5" id="part4-head"><rect fill="#E2E2F0" height="30.2969" rx="2.5" ry="2.5" style="stroke:#181818;stroke-width:0.5;" width="148.4082" x="530.9907" y="50"/><text fill="#000000" font-family="sans-serif" font-size="14" lengthAdjust="spacing" textLength="134.4082" x="537.9907" y="69.9951">LuogoPostgresDAO</text></g><g class="participant participant-tail" data-entity-uid="part4" data-qualified-name="LuogoPostgresDAO" data-source-line="5" id="part4-tail"><rect fill="#E2E2F0" height="30.2969" rx="2.5" ry="2.5" style="stroke:#181818;stroke-width:0.5;" width="148.4082" x="530.9907" y="1739.8828"/><text fill="#000000" font-family="sans-serif" font-size="14" lengthAdjust="spacing" textLength="134.4082" x="537.9907" y="1759.8779">LuogoPostgresDAO</text></g><g class="participant participant-head" data-entity-uid="part5" data-qualified-name="FotografiaPostgresDAO" data-source-line="6" id="part5-head"><rect fill="#E2E2F0" height="30.2969" rx="2.5" ry="2.5" style="stroke:#181818;stroke-width:0.5;" width="177.0098" x="689.3989" y="50"/><text fill="#000000" font-family="sans-serif" font-size="14" lengthAdjust="spacing" textLength="163.0098" x="696.3989" y="69.9951">FotografiaPostgresDAO</text></g><g class="participant participant-tail" data-entity-uid="part5" data-qualified-name="FotografiaPostgresDAO" data-source-line="6" id="part5-tail"><rect fill="#E2E2F0" height="30.2969" rx="2.5" ry="2.5" style="stroke:#181818;stroke-width:0.5;" width="177.0098" x="689.3989" y="1739.8828"/><text fill="#000000" font-family="sans-serif" font-size="14" lengthAdjust="spacing" textLength="163.0098" x="696.3989" y="1759.8779">FotografiaPostgresDAO</text></g><g class="participant participant-head" data-entity-uid="part6" data-qualified-name="ContienePostgresDAO" data-source-line="7" id="part6-head"><rect fill="#E2E2F0" height="30.2969" rx="2.5" ry="2.5" style="stroke:#181818;stroke-width:0.5;" width="168.4102" x="876.4087" y="50"/><text fill="#000000" font-family="sans-serif" font-size="14" lengthAdjust="spacing" textLength="154.4102" x="883.4087" y="69.9951">ContienePostgresDAO</text></g><g class="participant participant-tail" data-entity-uid="part6" data-qualified-name="ContienePostgresDAO" data-source-line="7" id="part6-tail"><rect fill="#E2E2F0" height="30.2969" rx="2.5" ry="2.5" style="stroke:#181818;stroke-width:0.5;" width="168.4102" x="876.4087" y="1739.8828"/><text fill="#000000" font-family="sans-serif" font-size="14" lengthAdjust="spacing" textLength="154.4102" x="883.4087" y="1759.8779">ContienePostgresDAO</text></g><g class="participant participant-head" data-entity-uid="part7" data-qualified-name="SoggettoPostgresDAO" data-source-line="8" id="part7-head"><rect fill="#E2E2F0" height="30.2969" rx="2.5" ry="2.5" style="stroke:#181818;stroke-width:0.5;" width="169.1006" x="1054.8188" y="50"/><text fill="#000000" font-family="sans-serif" font-size="14" lengthAdjust="spacing" textLength="155.1006" x="1061.8188" y="69.9951">SoggettoPostgresDAO</text></g><g class="participant participant-tail" data-entity-uid="part7" data-qualified-name="SoggettoPostgresDAO" data-source-line="8" id="part7-tail"><rect fill="#E2E2F0" height="30.2969" rx="2.5" ry="2.5" style="stroke:#181818;stroke-width:0.5;" width="169.1006" x="1054.8188" y="1739.8828"/><text fill="#000000" font-family="sans-serif" font-size="14" lengthAdjust="spacing" textLength="155.1006" x="1061.8188" y="1759.8779">SoggettoPostgresDAO</text></g><g class="participant participant-head" data-entity-uid="part8" data-qualified-name="MostraPostgresDAO" data-source-line="9" id="part8-head"><rect fill="#E2E2F0" height="30.2969" rx="2.5" ry="2.5" style="stroke:#181818;stroke-width:0.5;" width="153.4805" x="1233.9194" y="50"/><text fill="#000000" font-family="sans-serif" font-size="14" lengthAdjust="spacing" textLength="139.4805" x="1240.9194" y="69.9951">MostraPostgresDAO</text></g><g class="participant participant-tail" data-entity-uid="part8" data-qualified-name="MostraPostgresDAO" data-source-line="9" id="part8-tail"><rect fill="#E2E2F0" height="30.2969" rx="2.5" ry="2.5" style="stroke:#181818;stroke-width:0.5;" width="153.4805" x="1233.9194" y="1739.8828"/><text fill="#000000" font-family="sans-serif" font-size="14" lengthAdjust="spacing" textLength="139.4805" x="1240.9194" y="1759.8779">MostraPostgresDAO</text></g><g class="participant participant-head" data-entity-uid="part9" data-qualified-name="UtentePostgresDAO" data-source-line="10" id="part9-head"><rect fill="#E2E2F0" height="30.2969" rx="2.5" ry="2.5" style="stroke:#181818;stroke-width:0.5;" width="153.043" x="1397.3999" y="50"/><text fill="#000000" font-family="sans-serif" font-size="14" lengthAdjust="spacing" textLength="139.043" x="1404.3999" y="69.9951">UtentePostgresDAO</text></g><g class="participant participant-tail" data-entity-uid="part9" data-qualified-name="UtentePostgresDAO" data-source-line="10" id="part9-tail"><rect fill="#E2E2F0" height="30.2969" rx="2.5" ry="2.5" style="stroke:#181818;stroke-width:0.5;" width="153.043" x="1397.3999" y="1739.8828"/><text fill="#000000" font-family="sans-serif" font-size="14" lengthAdjust="spacing" textLength="139.043" x="1404.3999" y="1759.8779">UtentePostgresDAO</text></g><g class="message" data-entity-1="part1" data-entity-2="part2" data-source-line="12" id="msg1"><polygon fill="#181818" points="159.9326,108.4297,169.9326,112.4297,159.9326,116.4297,163.9326,112.4297" style="stroke:#181818;stroke-width:1;"/><line style="stroke:#181818;stroke-width:1;" x1="31.6626" x2="165.9326" y1="112.4297" y2="112.4297"/><text fill="#000000" font-family="sans-serif" font-size="13" lengthAdjust="spacing" textLength="116.27" x="38.6626" y="107.3638">inserisce dati foto</text></g><g class="message" data-entity-1="part2" data-entity-2="part3" data-source-line="14" id="msg2"><polygon fill="#181818" points="339.6152,137.5625,349.6152,141.5625,339.6152,145.5625,343.6152,141.5625" style="stroke:#181818;stroke-width:1;"/><line style="stroke:#181818;stroke-width:1;" x1="171.9326" x2="345.6152" y1="141.5625" y2="141.5625"/><text fill="#000000" font-family="sans-serif" font-size="13" lengthAdjust="spacing" textLength="155.6826" x="178.9326" y="136.4966">creazioneNuovaFoto(...)</text></g><path d="M132.3203,156.5625 L196.7632,156.5625 L196.7632,163.6953 L186.7632,173.6953 L132.3203,173.6953 L132.3203,156.5625" fill="#EEEEEE" style="stroke:#000000;stroke-width:1.5;"/><rect fill="none" height="1567.3203" style="stroke:#000000;stroke-width:1.5;" width="1458.1226" x="132.3203" y="156.5625"/><text fill="#000000" font-family="sans-serif" font-size="13" font-weight="700" lengthAdjust="spacing" textLength="19.4429" x="147.3203" y="169.6294">alt</text><text fill="#000000" font-family="sans-serif" font-size="11" font-weight="700" lengthAdjust="spacing" textLength="130.4478" x="211.7632" y="168.7729">[Utente non loggato]</text><g class="message" data-entity-1="part3" data-entity-2="part2" data-source-line="17" id="msg3"><polygon fill="#181818" points="182.9326,190.8281,172.9326,194.8281,182.9326,198.8281,178.9326,194.8281" style="stroke:#181818;stroke-width:1;"/><line style="stroke:#181818;stroke-width:1;stroke-dasharray:2,2;" x1="176.9326" x2="350.6152" y1="194.8281" y2="194.8281"/><text fill="#000000" font-family="sans-serif" font-size="13" lengthAdjust="spacing" textLength="23.7021" x="188.9326" y="189.7622">null</text></g><line style="stroke:#000000;stroke-width:1;stroke-dasharray:2,2;" x1="132.3203" x2="1590.4429" y1="203.8281" y2="203.8281"/><text fill="#000000" font-family="sans-serif" font-size="11" font-weight="700" lengthAdjust="spacing" textLength="103.3989" x="137.3203" y="214.0386">[Utente loggato]</text><g class="message" data-entity-1="part3" data-entity-2="part3" data-source-line="20" id="msg4"><line style="stroke:#181818;stroke-width:1;" x1="351.6152" x2="393.6152" y1="238.7656" y2="238.7656"/><line style="stroke:#181818;stroke-width:1;" x1="393.6152" x2="393.6152" y1="238.7656" y2="251.7656"/><line style="stroke:#181818;stroke-width:1;" x1="352.6152" x2="393.6152" y1="251.7656" y2="251.7656"/><polygon fill="#181818" points="362.6152,247.7656,352.6152,251.7656,362.6152,255.7656,358.6152,251.7656" style="stroke:#181818;stroke-width:1;"/><text fill="#000000" font-family="sans-serif" font-size="13" lengthAdjust="spacing" textLength="239.5796" x="358.6152" y="233.6997">getCoordinateEsistentiByToponimo()</text></g><path d="M290.0288,266.7656 L354.4717,266.7656 L354.4717,273.8984 L344.4717,283.8984 L290.0288,283.8984 L290.0288,266.7656" fill="#EEEEEE" style="stroke:#000000;stroke-width:1.5;"/><rect fill="none" height="176.6641" style="stroke:#000000;stroke-width:1.5;" width="236.4468" x="290.0288" y="266.7656"/><text fill="#000000" font-family="sans-serif" font-size="13" font-weight="700" lengthAdjust="spacing" textLength="19.4429" x="305.0288" y="279.8325">alt</text><text fill="#000000" font-family="sans-serif" font-size="11" font-weight="700" lengthAdjust="spacing" textLength="134.4653" x="369.4717" y="278.9761">[coordinate esistenti]</text><g class="message" data-entity-1="part3" data-entity-2="part3" data-source-line="22" id="msg5"><line style="stroke:#181818;stroke-width:1;" x1="351.6152" x2="393.6152" y1="305.0313" y2="305.0313"/><line style="stroke:#181818;stroke-width:1;" x1="393.6152" x2="393.6152" y1="305.0313" y2="318.0313"/><line style="stroke:#181818;stroke-width:1;" x1="352.6152" x2="393.6152" y1="318.0313" y2="318.0313"/><polygon fill="#181818" points="362.6152,314.0313,352.6152,318.0313,362.6152,322.0313,358.6152,318.0313" style="stroke:#181818;stroke-width:1;"/><text fill="#000000" font-family="sans-serif" font-size="13" lengthAdjust="spacing" textLength="127.8926" x="358.6152" y="299.9653">override coordinate</text></g><line style="stroke:#000000;stroke-width:1;stroke-dasharray:2,2;" x1="290.0288" x2="526.4756" y1="327.0313" y2="327.0313"/><g class="message" data-entity-1="part3" data-entity-2="part3" data-source-line="24" id="msg6"><line style="stroke:#181818;stroke-width:1;" x1="351.6152" x2="393.6152" y1="349.1641" y2="349.1641"/><line style="stroke:#181818;stroke-width:1;" x1="393.6152" x2="393.6152" y1="349.1641" y2="362.1641"/><line style="stroke:#181818;stroke-width:1;" x1="352.6152" x2="393.6152" y1="362.1641" y2="362.1641"/><polygon fill="#181818" points="362.6152,358.1641,352.6152,362.1641,362.6152,366.1641,358.6152,362.1641" style="stroke:#181818;stroke-width:1;"/><text fill="#000000" font-family="sans-serif" font-size="13" lengthAdjust="spacing" textLength="155.8604" x="358.6152" y="344.0981">getToponimoEsistente()</text></g><path d="M300.0288,377.1641 L364.4717,377.1641 L364.4717,384.2969 L354.4717,394.2969 L300.0288,394.2969 L300.0288,377.1641" fill="#EEEEEE" style="stroke:#000000;stroke-width:1.5;"/><rect fill="none" height="59.2656" style="stroke:#000000;stroke-width:1.5;" width="214.7886" x="300.0288" y="377.1641"/><text fill="#000000" font-family="sans-serif" font-size="13" font-weight="700" lengthAdjust="spacing" textLength="19.4429" x="315.0288" y="390.231">alt</text><text fill="#000000" font-family="sans-serif" font-size="11" font-weight="700" lengthAdjust="spacing" textLength="130.3457" x="379.4717" y="389.3745">[toponimo esistente]</text><g class="message" data-entity-1="part3" data-entity-2="part3" data-source-line="26" id="msg7"><line style="stroke:#181818;stroke-width:1;" x1="351.6152" x2="393.6152" y1="415.4297" y2="415.4297"/><line style="stroke:#181818;stroke-width:1;" x1="393.6152" x2="393.6152" y1="415.4297" y2="428.4297"/><line style="stroke:#181818;stroke-width:1;" x1="352.6152" x2="393.6152" y1="428.4297" y2="428.4297"/><polygon fill="#181818" points="362.6152,424.4297,352.6152,428.4297,362.6152,432.4297,358.6152,428.4297" style="stroke:#181818;stroke-width:1;"/><text fill="#000000" font-family="sans-serif" font-size="13" lengthAdjust="spacing" textLength="120.0532" x="358.6152" y="410.3638">override toponimo</text></g><g class="message" data-entity-1="part3" data-entity-2="part3" data-source-line="30" id="msg8"><line style="stroke:#181818;stroke-width:1;" x1="351.6152" x2="393.6152" y1="471.5625" y2="471.5625"/><line style="stroke:#181818;stroke-width:1;" x1="393.6152" x2="393.6152" y1="471.5625" y2="484.5625"/><line style="stroke:#181818;stroke-width:1;" x1="352.6152" x2="393.6152" y1="484.5625" y2="484.5625"/><polygon fill="#181818" points="362.6152,480.5625,352.6152,484.5625,362.6152,488.5625,358.6152,484.5625" style="stroke:#181818;stroke-width:1;"/><text fill="#000000" font-family="sans-serif" font-size="13" lengthAdjust="spacing" textLength="159.2373" x="358.6152" y="466.4966">getLuogoByCoordinate()</text></g><path d="M300.0288,499.5625 L364.4717,499.5625 L364.4717,506.6953 L354.4717,516.6953 L300.0288,516.6953 L300.0288,499.5625" fill="#EEEEEE" style="stroke:#000000;stroke-width:1.5;"/><rect fill="none" height="88.3984" style="stroke:#000000;stroke-width:1.5;" width="389.3701" x="300.0288" y="499.5625"/><text fill="#000000" font-family="sans-serif" font-size="13" font-weight="700" lengthAdjust="spacing" textLength="19.4429" x="315.0288" y="512.6294">alt</text><text fill="#000000" font-family="sans-serif" font-size="11" font-weight="700" lengthAdjust="spacing" textLength="112.5674" x="379.4717" y="511.7729">[luogo non esiste]</text><g class="message" data-entity-1="part3" data-entity-2="part4" data-source-line="33" id="msg9"><polygon fill="#181818" points="593.1948,533.8281,603.1948,537.8281,593.1948,541.8281,597.1948,537.8281" style="stroke:#181818;stroke-width:1;"/><line style="stroke:#181818;stroke-width:1;" x1="351.6152" x2="599.1948" y1="537.8281" y2="537.8281"/><text fill="#000000" font-family="sans-serif" font-size="13" lengthAdjust="spacing" textLength="86.8486" x="358.6152" y="532.7622">insertLuogo()</text></g><g class="message" data-entity-1="part3" data-entity-2="part3" data-source-line="34" id="msg10"><line style="stroke:#181818;stroke-width:1;" x1="351.6152" x2="393.6152" y1="566.9609" y2="566.9609"/><line style="stroke:#181818;stroke-width:1;" x1="393.6152" x2="393.6152" y1="566.9609" y2="579.9609"/><line style="stroke:#181818;stroke-width:1;" x1="352.6152" x2="393.6152" y1="579.9609" y2="579.9609"/><polygon fill="#181818" points="362.6152,575.9609,352.6152,579.9609,362.6152,583.9609,358.6152,579.9609" style="stroke:#181818;stroke-width:1;"/><text fill="#000000" font-family="sans-serif" font-size="13" lengthAdjust="spacing" textLength="150.5474" x="358.6152" y="561.895">crea Luogo in memoria</text></g><g class="message" data-entity-1="part3" data-entity-2="part5" data-source-line="37" id="msg11"><polygon fill="#181818" points="765.9038,612.0938,775.9038,616.0938,765.9038,620.0938,769.9038,616.0938" style="stroke:#181818;stroke-width:1;"/><line style="stroke:#181818;stroke-width:1;" x1="351.6152" x2="771.9038" y1="616.0938" y2="616.0938"/><text fill="#000000" font-family="sans-serif" font-size="13" lengthAdjust="spacing" textLength="113.4072" x="358.6152" y="611.0278">insertFotografia()</text></g><path d="M142.3203,631.0938 L206.7632,631.0938 L206.7632,638.2266 L196.7632,648.2266 L142.3203,648.2266 L142.3203,631.0938" fill="#EEEEEE" style="stroke:#000000;stroke-width:1.5;"/><rect fill="none" height="46.2656" style="stroke:#000000;stroke-width:1.5;" width="260.8813" x="142.3203" y="631.0938"/><text fill="#000000" font-family="sans-serif" font-size="13" font-weight="700" lengthAdjust="spacing" textLength="19.4429" x="157.3203" y="644.1606">alt</text><text fill="#000000" font-family="sans-serif" font-size="11" font-weight="700" lengthAdjust="spacing" textLength="88.9292" x="221.7632" y="643.3042">[errore insert]</text><g class="message" data-entity-1="part3" data-entity-2="part2" data-source-line="39" id="msg12"><polygon fill="#181818" points="182.9326,665.3594,172.9326,669.3594,182.9326,673.3594,178.9326,669.3594" style="stroke:#181818;stroke-width:1;"/><line style="stroke:#181818;stroke-width:1;stroke-dasharray:2,2;" x1="176.9326" x2="350.6152" y1="669.3594" y2="669.3594"/><text fill="#000000" font-family="sans-serif" font-size="13" lengthAdjust="spacing" textLength="23.7021" x="188.9326" y="664.2935">null</text></g><g class="message" data-entity-1="part3" data-entity-2="part3" data-source-line="42" id="msg13"><line style="stroke:#181818;stroke-width:1;" x1="351.6152" x2="393.6152" y1="705.4922" y2="705.4922"/><line style="stroke:#181818;stroke-width:1;" x1="393.6152" x2="393.6152" y1="705.4922" y2="718.4922"/><line style="stroke:#181818;stroke-width:1;" x1="352.6152" x2="393.6152" y1="718.4922" y2="718.4922"/><polygon fill="#181818" points="362.6152,714.4922,352.6152,718.4922,362.6152,722.4922,358.6152,718.4922" style="stroke:#181818;stroke-width:1;"/><text fill="#000000" font-family="sans-serif" font-size="13" lengthAdjust="spacing" textLength="145.3994" x="358.6152" y="700.4263">getGalleriaPersonale()</text></g><path d="M300.0288,733.4922 L364.4717,733.4922 L364.4717,740.625 L354.4717,750.625 L300.0288,750.625 L300.0288,733.4922" fill="#EEEEEE" style="stroke:#000000;stroke-width:1.5;"/><rect fill="none" height="46.2656" style="stroke:#000000;stroke-width:1.5;" width="754.79" x="300.0288" y="733.4922"/><text fill="#000000" font-family="sans-serif" font-size="13" font-weight="700" lengthAdjust="spacing" textLength="19.4429" x="315.0288" y="746.5591">alt</text><text fill="#000000" font-family="sans-serif" font-size="11" font-weight="700" lengthAdjust="spacing" textLength="146.0186" x="379.4717" y="745.7026">[galleria privata esiste]</text><g class="message" data-entity-1="part3" data-entity-2="part6" data-source-line="45" id="msg14"><polygon fill="#181818" points="948.6138,767.7578,958.6138,771.7578,948.6138,775.7578,952.6138,771.7578" style="stroke:#181818;stroke-width:1;"/><line style="stroke:#181818;stroke-width:1;" x1="351.6152" x2="954.6138" y1="771.7578" y2="771.7578"/><text fill="#000000" font-family="sans-serif" font-size="13" lengthAdjust="spacing" textLength="134.7671" x="358.6152" y="766.6919">insertFotoAGalleria()</text></g><g class="message" data-entity-1="part3" data-entity-2="part3" data-source-line="48" id="msg15"><line style="stroke:#181818;stroke-width:1;" x1="351.6152" x2="393.6152" y1="807.8906" y2="807.8906"/><line style="stroke:#181818;stroke-width:1;" x1="393.6152" x2="393.6152" y1="807.8906" y2="820.8906"/><line style="stroke:#181818;stroke-width:1;" x1="352.6152" x2="393.6152" y1="820.8906" y2="820.8906"/><polygon fill="#181818" points="362.6152,816.8906,352.6152,820.8906,362.6152,824.8906,358.6152,820.8906" style="stroke:#181818;stroke-width:1;"/><text fill="#000000" font-family="sans-serif" font-size="13" lengthAdjust="spacing" textLength="98.7886" x="358.6152" y="802.8247">crea Fotografia</text></g><path d="M270.0288,835.8906 L334.4717,835.8906 L334.4717,843.0234 L324.4717,853.0234 L270.0288,853.0234 L270.0288,835.8906" fill="#EEEEEE" style="stroke:#000000;stroke-width:1.5;"/><rect fill="none" height="610.0625" style="stroke:#000000;stroke-width:1.5;" width="1310.4141" x="270.0288" y="835.8906"/><text fill="#000000" font-family="sans-serif" font-size="13" font-weight="700" lengthAdjust="spacing" textLength="19.4429" x="285.0288" y="848.9575">alt</text><text fill="#000000" font-family="sans-serif" font-size="11" font-weight="700" lengthAdjust="spacing" textLength="109.7261" x="349.4717" y="848.1011">[foto ha soggetti]</text><path d="M280.0288,860.0234 L356.6528,860.0234 L356.6528,867.1563 L346.6528,877.1563 L280.0288,877.1563 L280.0288,860.0234" fill="#EEEEEE" style="stroke:#000000;stroke-width:1.5;"/><rect fill="none" height="578.9297" style="stroke:#000000;stroke-width:1.5;" width="1290.4141" x="280.0288" y="860.0234"/><text fill="#000000" font-family="sans-serif" font-size="13" font-weight="700" lengthAdjust="spacing" textLength="31.624" x="295.0288" y="873.0903">loop</text><text fill="#000000" font-family="sans-serif" font-size="11" font-weight="700" lengthAdjust="spacing" textLength="120.8926" x="371.6528" y="872.2339">[per ogni soggetto]</text><path d="M290.0288,884.1563 L354.4717,884.1563 L354.4717,891.2891 L344.4717,901.2891 L290.0288,901.2891 L290.0288,884.1563" fill="#EEEEEE" style="stroke:#000000;stroke-width:1.5;"/><rect fill="none" height="476.5313" style="stroke:#000000;stroke-width:1.5;" width="1270.4141" x="290.0288" y="884.1563"/><text fill="#000000" font-family="sans-serif" font-size="13" font-weight="700" lengthAdjust="spacing" textLength="19.4429" x="305.0288" y="897.2231">alt</text><text fill="#000000" font-family="sans-serif" font-size="11" font-weight="700" lengthAdjust="spacing" textLength="139.3047" x="369.4717" y="896.3667">[categoria = "Utente"]</text><g class="message" data-entity-1="part3" data-entity-2="part3" data-source-line="53" id="msg16"><line style="stroke:#181818;stroke-width:1;" x1="351.6152" x2="393.6152" y1="922.4219" y2="922.4219"/><line style="stroke:#181818;stroke-width:1;" x1="393.6152" x2="393.6152" y1="922.4219" y2="935.4219"/><line style="stroke:#181818;stroke-width:1;" x1="352.6152" x2="393.6152" y1="935.4219" y2="935.4219"/><polygon fill="#181818" points="362.6152,931.4219,352.6152,935.4219,362.6152,939.4219,358.6152,935.4219" style="stroke:#181818;stroke-width:1;"/><text fill="#000000" font-family="sans-serif" font-size="13" lengthAdjust="spacing" textLength="158.5454" x="358.6152" y="917.356">getUtenteByUsername()</text></g><g class="message" data-entity-1="part3" data-entity-2="part3" data-source-line="54" id="msg17"><line style="stroke:#181818;stroke-width:1;" x1="351.6152" x2="393.6152" y1="964.5547" y2="964.5547"/><line style="stroke:#181818;stroke-width:1;" x1="393.6152" x2="393.6152" y1="964.5547" y2="977.5547"/><line style="stroke:#181818;stroke-width:1;" x1="352.6152" x2="393.6152" y1="977.5547" y2="977.5547"/><polygon fill="#181818" points="362.6152,973.5547,352.6152,977.5547,362.6152,981.5547,358.6152,977.5547" style="stroke:#181818;stroke-width:1;"/><text fill="#000000" font-family="sans-serif" font-size="13" lengthAdjust="spacing" textLength="150.9028" x="358.6152" y="959.4888">getSoggettoByUtente()</text></g><path d="M300.0288,992.5547 L364.4717,992.5547 L364.4717,999.6875 L354.4717,1009.6875 L300.0288,1009.6875 L300.0288,992.5547" fill="#EEEEEE" style="stroke:#000000;stroke-width:1.5;"/><rect fill="none" height="88.3984" style="stroke:#000000;stroke-width:1.5;" width="933.8906" x="300.0288" y="992.5547"/><text fill="#000000" font-family="sans-serif" font-size="13" font-weight="700" lengthAdjust="spacing" textLength="19.4429" x="315.0288" y="1005.6216">alt</text><text fill="#000000" font-family="sans-serif" font-size="11" font-weight="700" lengthAdjust="spacing" textLength="133.3643" x="379.4717" y="1004.7651">[soggetto non esiste]</text><g class="message" data-entity-1="part3" data-entity-2="part7" data-source-line="57" id="msg18"><polygon fill="#181818" points="1127.3691,1026.8203,1137.3691,1030.8203,1127.3691,1034.8203,1131.3691,1030.8203" style="stroke:#181818;stroke-width:1;"/><line style="stroke:#181818;stroke-width:1;" x1="351.6152" x2="1133.3691" y1="1030.8203" y2="1030.8203"/><text fill="#000000" font-family="sans-serif" font-size="13" lengthAdjust="spacing" textLength="165.6738" x="358.6152" y="1025.7544">insertUtenteAsSoggetto()</text></g><g class="message" data-entity-1="part3" data-entity-2="part3" data-source-line="58" id="msg19"><line style="stroke:#181818;stroke-width:1;" x1="351.6152" x2="393.6152" y1="1059.9531" y2="1059.9531"/><line style="stroke:#181818;stroke-width:1;" x1="393.6152" x2="393.6152" y1="1059.9531" y2="1072.9531"/><line style="stroke:#181818;stroke-width:1;" x1="352.6152" x2="393.6152" y1="1072.9531" y2="1072.9531"/><polygon fill="#181818" points="362.6152,1068.9531,352.6152,1072.9531,362.6152,1076.9531,358.6152,1072.9531" style="stroke:#181818;stroke-width:1;"/><text fill="#000000" font-family="sans-serif" font-size="13" lengthAdjust="spacing" textLength="91.4443" x="358.6152" y="1054.8872">crea Soggetto</text></g><g class="message" data-entity-1="part3" data-entity-2="part3" data-source-line="60" id="msg20"><line style="stroke:#181818;stroke-width:1;" x1="351.6152" x2="393.6152" y1="1109.0859" y2="1109.0859"/><line style="stroke:#181818;stroke-width:1;" x1="393.6152" x2="393.6152" y1="1109.0859" y2="1122.0859"/><line style="stroke:#181818;stroke-width:1;" x1="352.6152" x2="393.6152" y1="1122.0859" y2="1122.0859"/><polygon fill="#181818" points="362.6152,1118.0859,352.6152,1122.0859,362.6152,1126.0859,358.6152,1122.0859" style="stroke:#181818;stroke-width:1;"/><text fill="#000000" font-family="sans-serif" font-size="13" lengthAdjust="spacing" textLength="115.5464" x="358.6152" y="1104.02">setSoggetto(true)</text></g><g class="message" data-entity-1="part3" data-entity-2="part9" data-source-line="61" id="msg21"><polygon fill="#181818" points="1461.9214,1147.2188,1471.9214,1151.2188,1461.9214,1155.2188,1465.9214,1151.2188" style="stroke:#181818;stroke-width:1;"/><line style="stroke:#181818;stroke-width:1;" x1="351.6152" x2="1467.9214" y1="1151.2188" y2="1151.2188"/><text fill="#000000" font-family="sans-serif" font-size="13" lengthAdjust="spacing" textLength="125.4106" x="358.6152" y="1146.1528">updateIsSoggetto()</text></g><line style="stroke:#000000;stroke-width:1;stroke-dasharray:2,2;" x1="290.0288" x2="1560.4429" y1="1160.2188" y2="1160.2188"/><text fill="#000000" font-family="sans-serif" font-size="11" font-weight="700" lengthAdjust="spacing" textLength="126.9941" x="295.0288" y="1170.4292">[altro tipo soggetto]</text><g class="message" data-entity-1="part3" data-entity-2="part3" data-source-line="63" id="msg22"><line style="stroke:#181818;stroke-width:1;" x1="351.6152" x2="393.6152" y1="1195.1563" y2="1195.1563"/><line style="stroke:#181818;stroke-width:1;" x1="393.6152" x2="393.6152" y1="1195.1563" y2="1208.1563"/><line style="stroke:#181818;stroke-width:1;" x1="352.6152" x2="393.6152" y1="1208.1563" y2="1208.1563"/><polygon fill="#181818" points="362.6152,1204.1563,352.6152,1208.1563,362.6152,1212.1563,358.6152,1208.1563" style="stroke:#181818;stroke-width:1;"/><text fill="#000000" font-family="sans-serif" font-size="13" lengthAdjust="spacing" textLength="145.2979" x="358.6152" y="1190.0903">getSoggettoByNome()</text></g><path d="M300.0288,1223.1563 L364.4717,1223.1563 L364.4717,1230.2891 L354.4717,1240.2891 L300.0288,1240.2891 L300.0288,1223.1563" fill="#EEEEEE" style="stroke:#000000;stroke-width:1.5;"/><rect fill="none" height="130.5313" style="stroke:#000000;stroke-width:1.5;" width="933.8906" x="300.0288" y="1223.1563"/><text fill="#000000" font-family="sans-serif" font-size="13" font-weight="700" lengthAdjust="spacing" textLength="19.4429" x="315.0288" y="1236.2231">alt</text><text fill="#000000" font-family="sans-serif" font-size="11" font-weight="700" lengthAdjust="spacing" textLength="133.3643" x="379.4717" y="1235.3667">[soggetto non esiste]</text><g class="message" data-entity-1="part3" data-entity-2="part7" data-source-line="66" id="msg23"><polygon fill="#181818" points="1127.3691,1257.4219,1137.3691,1261.4219,1127.3691,1265.4219,1131.3691,1261.4219" style="stroke:#181818;stroke-width:1;"/><line style="stroke:#181818;stroke-width:1;" x1="351.6152" x2="1133.3691" y1="1261.4219" y2="1261.4219"/><text fill="#000000" font-family="sans-serif" font-size="13" lengthAdjust="spacing" textLength="106.063" x="358.6152" y="1256.356">insertSoggetto()</text></g><g class="message" data-entity-1="part3" data-entity-2="part3" data-source-line="67" id="msg24"><line style="stroke:#181818;stroke-width:1;" x1="351.6152" x2="393.6152" y1="1290.5547" y2="1290.5547"/><line style="stroke:#181818;stroke-width:1;" x1="393.6152" x2="393.6152" y1="1290.5547" y2="1303.5547"/><line style="stroke:#181818;stroke-width:1;" x1="352.6152" x2="393.6152" y1="1303.5547" y2="1303.5547"/><polygon fill="#181818" points="362.6152,1299.5547,352.6152,1303.5547,362.6152,1307.5547,358.6152,1303.5547" style="stroke:#181818;stroke-width:1;"/><text fill="#000000" font-family="sans-serif" font-size="13" lengthAdjust="spacing" textLength="91.4443" x="358.6152" y="1285.4888">crea Soggetto</text></g><g class="message" data-entity-1="part3" data-entity-2="part3" data-source-line="68" id="msg25"><line style="stroke:#181818;stroke-width:1;" x1="351.6152" x2="393.6152" y1="1332.6875" y2="1332.6875"/><line style="stroke:#181818;stroke-width:1;" x1="393.6152" x2="393.6152" y1="1332.6875" y2="1345.6875"/><line style="stroke:#181818;stroke-width:1;" x1="352.6152" x2="393.6152" y1="1345.6875" y2="1345.6875"/><polygon fill="#181818" points="362.6152,1341.6875,352.6152,1345.6875,362.6152,1349.6875,358.6152,1345.6875" style="stroke:#181818;stroke-width:1;"/><text fill="#000000" font-family="sans-serif" font-size="13" lengthAdjust="spacing" textLength="208.6348" x="358.6152" y="1327.6216">aggiunge soggetto in memeoria</text></g><g class="message" data-entity-1="part3" data-entity-2="part8" data-source-line="72" id="msg26"><polygon fill="#181818" points="1298.6597,1384.8203,1308.6597,1388.8203,1298.6597,1392.8203,1302.6597,1388.8203" style="stroke:#181818;stroke-width:1;"/><line style="stroke:#181818;stroke-width:1;" x1="351.6152" x2="1304.6597" y1="1388.8203" y2="1388.8203"/><text fill="#000000" font-family="sans-serif" font-size="13" lengthAdjust="spacing" textLength="146.6182" x="358.6152" y="1383.7544">insertSoggettoInFoto()</text></g><g class="message" data-entity-1="part3" data-entity-2="part3" data-source-line="73" id="msg27"><line style="stroke:#181818;stroke-width:1;" x1="351.6152" x2="393.6152" y1="1417.9531" y2="1417.9531"/><line style="stroke:#181818;stroke-width:1;" x1="393.6152" x2="393.6152" y1="1417.9531" y2="1430.9531"/><line style="stroke:#181818;stroke-width:1;" x1="352.6152" x2="393.6152" y1="1430.9531" y2="1430.9531"/><polygon fill="#181818" points="362.6152,1426.9531,352.6152,1430.9531,362.6152,1434.9531,358.6152,1430.9531" style="stroke:#181818;stroke-width:1;"/><text fill="#000000" font-family="sans-serif" font-size="13" lengthAdjust="spacing" textLength="151.5122" x="358.6152" y="1412.8872">associa soggetto a foto</text></g><path d="M300.0288,1459.9531 L376.6528,1459.9531 L376.6528,1467.0859 L366.6528,1477.0859 L300.0288,1477.0859 L300.0288,1459.9531" fill="#EEEEEE" style="stroke:#000000;stroke-width:1.5;"/><rect fill="none" height="59.2656" style="stroke:#000000;stroke-width:1.5;" width="274.8984" x="300.0288" y="1459.9531"/><text fill="#000000" font-family="sans-serif" font-size="13" font-weight="700" lengthAdjust="spacing" textLength="31.624" x="315.0288" y="1473.02">loop</text><text fill="#000000" font-family="sans-serif" font-size="11" font-weight="700" lengthAdjust="spacing" textLength="154.3921" x="391.6528" y="1472.1636">[aggiornamento inverso]</text><g class="message" data-entity-1="part3" data-entity-2="part3" data-source-line="78" id="msg28"><line style="stroke:#181818;stroke-width:1;" x1="351.6152" x2="393.6152" y1="1498.2188" y2="1498.2188"/><line style="stroke:#181818;stroke-width:1;" x1="393.6152" x2="393.6152" y1="1498.2188" y2="1511.2188"/><line style="stroke:#181818;stroke-width:1;" x1="352.6152" x2="393.6152" y1="1511.2188" y2="1511.2188"/><polygon fill="#181818" points="362.6152,1507.2188,352.6152,1511.2188,362.6152,1515.2188,358.6152,1511.2188" style="stroke:#181818;stroke-width:1;"/><text fill="#000000" font-family="sans-serif" font-size="13" lengthAdjust="spacing" textLength="204.312" x="358.6152" y="1493.1528">soggetto.addFotoInCuiAppare()</text></g><g class="message" data-entity-1="part3" data-entity-2="part3" data-source-line="81" id="msg29"><line style="stroke:#181818;stroke-width:1;" x1="351.6152" x2="393.6152" y1="1547.3516" y2="1547.3516"/><line style="stroke:#181818;stroke-width:1;" x1="393.6152" x2="393.6152" y1="1547.3516" y2="1560.3516"/><line style="stroke:#181818;stroke-width:1;" x1="352.6152" x2="393.6152" y1="1560.3516" y2="1560.3516"/><polygon fill="#181818" points="362.6152,1556.3516,352.6152,1560.3516,362.6152,1564.3516,358.6152,1560.3516" style="stroke:#181818;stroke-width:1;"/><text fill="#000000" font-family="sans-serif" font-size="13" lengthAdjust="spacing" textLength="132.501" x="358.6152" y="1542.2856">add foto in memoria</text></g><g class="message" data-entity-1="part3" data-entity-2="part3" data-source-line="82" id="msg30"><line style="stroke:#181818;stroke-width:1;" x1="351.6152" x2="393.6152" y1="1589.4844" y2="1589.4844"/><line style="stroke:#181818;stroke-width:1;" x1="393.6152" x2="393.6152" y1="1589.4844" y2="1602.4844"/><line style="stroke:#181818;stroke-width:1;" x1="352.6152" x2="393.6152" y1="1602.4844" y2="1602.4844"/><polygon fill="#181818" points="362.6152,1598.4844,352.6152,1602.4844,362.6152,1606.4844,358.6152,1602.4844" style="stroke:#181818;stroke-width:1;"/><text fill="#000000" font-family="sans-serif" font-size="13" lengthAdjust="spacing" textLength="145.0566" x="358.6152" y="1584.4185">associa foto ad utente</text></g><g class="message" data-entity-1="part3" data-entity-2="part3" data-source-line="83" id="msg31"><line style="stroke:#181818;stroke-width:1;" x1="351.6152" x2="393.6152" y1="1631.6172" y2="1631.6172"/><line style="stroke:#181818;stroke-width:1;" x1="393.6152" x2="393.6152" y1="1631.6172" y2="1644.6172"/><line style="stroke:#181818;stroke-width:1;" x1="352.6152" x2="393.6152" y1="1644.6172" y2="1644.6172"/><polygon fill="#181818" points="362.6152,1640.6172,352.6152,1644.6172,362.6152,1648.6172,358.6152,1644.6172" style="stroke:#181818;stroke-width:1;"/><text fill="#000000" font-family="sans-serif" font-size="13" lengthAdjust="spacing" textLength="122.1733" x="358.6152" y="1626.5513">addFotoAGalleria()</text></g><g class="message" data-entity-1="part3" data-entity-2="part3" data-source-line="84" id="msg32"><line style="stroke:#181818;stroke-width:1;" x1="351.6152" x2="393.6152" y1="1673.75" y2="1673.75"/><line style="stroke:#181818;stroke-width:1;" x1="393.6152" x2="393.6152" y1="1673.75" y2="1686.75"/><line style="stroke:#181818;stroke-width:1;" x1="352.6152" x2="393.6152" y1="1686.75" y2="1686.75"/><polygon fill="#181818" points="362.6152,1682.75,352.6152,1686.75,362.6152,1690.75,358.6152,1686.75" style="stroke:#181818;stroke-width:1;"/><text fill="#000000" font-family="sans-serif" font-size="13" lengthAdjust="spacing" textLength="158.9453" x="358.6152" y="1668.6841">addLuogoRaffiguratoIn()</text></g><g class="message" data-entity-1="part3" data-entity-2="part2" data-source-line="86" id="msg33"><polygon fill="#181818" points="182.9326,1711.8828,172.9326,1715.8828,182.9326,1719.8828,178.9326,1715.8828" style="stroke:#181818;stroke-width:1;"/><line style="stroke:#181818;stroke-width:1;stroke-dasharray:2,2;" x1="176.9326" x2="350.6152" y1="1715.8828" y2="1715.8828"/><text fill="#000000" font-family="sans-serif" font-size="13" lengthAdjust="spacing" textLength="66.1997" x="188.9326" y="1710.8169">Fotografia</text></g><?plantuml-src lLRRZjem47tFLrZx10_B1rHg9Q3j2gdTLjto0QDaS2q5JsGxIFJhExPnBf24yB3b1SZSpfbh87TanDwXTfXb5HYdSbM1Tk9bl-lztv9sXieIJU_njvea_IJhf47xUVsZ9_nAZgI1Wu8n3UzLeSOn-Hj9YSwDHlZEpysezyYhAytY8_7yoHCK7uJI5esoEOe2d187HfnbNiGQBMLMp0t2NqKQNsiwWMUsMArMooo3CWKIchGe6J6m4y6VZeFd9gAkopB3qcAoIXOt9bS8E15R8bCe3Gw_M6MzkTgSVrD5MXrfiGmUF9wyqHEO58FmJWWweJ6gm8w3OERXph5dY0bD0eWNM0cQkyWROAtZkU2IYyOGTP6bxnbP33sxERV9P8XDwael39MC04TeN_TzQgNelCDv0eflgUY8RSKHZsGKJ14PdAScSYljT0AdZ0nUD0P1zHlpWJI-WF_DMD1Oqb3sqYWlGb4PTG87qzaSM0CzMkiKwy9i3iAGtJOdBJG_u-8F21jtIpiO9L4bAZOcgLKIKwyzmt1nnqXVAl5HFCKPVkeftKzTjDgSzqnGmx4x8_CSfBt8Bhf3TkF5uqr4XffwFEB0vcrA4cEkRT8PW3-dE6z36UxEyqndjit7mfaQxoNpvYomZxhY_O-xCKfXNtCo3GcdAXfkZaVAzah7_roqzohM7MEGKjLQOiiexZfibjrKvTF_YHjnymfmmtYdmxbUpZqqO2tb2bh44DyBHizDM1oUA8Lfre7aoQ_5EMSWXLb1KNYWExsjrRhY5nbyODsnSTniLwTa1izW1eMestCy7MXe9KzRX2lt2mu79Mi3dcCw5eEdgBkscVm_?></g></svg>