<svg xmlns="http://www.w3.org/2000/svg" xmlns:xlink="http://www.w3.org/1999/xlink" contentStyleType="text/css" data-diagram-type="SEQUENCE" height="1789px" preserveAspectRatio="none" style="width:1718px;height:1789px;background:#FFFFFF;" version="1.1" viewBox="0 0 1718 1789" width="1718px" zoomAndPan="magnify"><?plantuml 1.2026.3beta5?><defs/><g><rect fill="none" height="1423.0547" style="stroke:#000000;stroke-width:1.5;" width="1575.9653" x="117.0132" y="266.7656"/><rect fill="none" height="1347.9844" style="stroke:#000000;stroke-width:1.5;" width="1363.4419" x="319.5366" y="334.8359"/><rect fill="none" height="46.2656" style="stroke:#000000;stroke-width:1.5;" width="465.3257" x="369.5366" y="358.9688"/><rect fill="none" height="624.0625" style="stroke:#000000;stroke-width:1.5;" width="693.7358" x="329.5366" y="419.2344"/><rect fill="none" height="490.5313" style="stroke:#000000;stroke-width:1.5;" width="406.354" x="339.5366" y="443.3672"/><rect fill="none" height="283.0625" style="stroke:#000000;stroke-width:1.5;" width="386.354" x="349.5366" y="511.6328"/><rect fill="none" height="134.5313" style="stroke:#000000;stroke-width:1.5;" width="366.354" x="359.5366" y="535.7656"/><rect fill="none" height="61.2656" style="stroke:#000000;stroke-width:1.5;" width="346.354" x="369.5366" y="602.0313"/><rect fill="none" height="103.3984" style="stroke:#000000;stroke-width:1.5;" width="257.0996" x="369.5366" y="684.2969"/><rect fill="none" height="103.3984" style="stroke:#000000;stroke-width:1.5;" width="184.4443" x="369.5366" y="823.5"/><rect fill="none" height="88.3984" style="stroke:#000000;stroke-width:1.5;" width="643.7358" x="369.5366" y="947.8984"/><rect fill="none" height="46.2656" style="stroke:#000000;stroke-width:1.5;" width="465.3257" x="369.5366" y="1057.2969"/><rect fill="none" height="46.2656" style="stroke:#000000;stroke-width:1.5;" width="465.3257" x="369.5366" y="1117.5625"/><rect fill="none" height="88.3984" style="stroke:#000000;stroke-width:1.5;" width="813.4985" x="369.5366" y="1177.8281"/><rect fill="none" height="88.3984" style="stroke:#000000;stroke-width:1.5;" width="995.1489" x="369.5366" y="1280.2266"/><rect fill="none" height="221.9297" style="stroke:#000000;stroke-width:1.5;" width="1190.3989" x="349.5366" y="1382.625"/><rect fill="none" height="190.7969" style="stroke:#000000;stroke-width:1.5;" width="1170.3989" x="359.5366" y="1406.7578"/><rect fill="none" height="88.3984" style="stroke:#000000;stroke-width:1.5;" width="1150.3989" x="369.5366" y="1430.8906"/><g class="participant-lifeline" data-entity-uid="part1" data-qualified-name="Admin" data-source-line="1" id="part1-lifeline"><g><title>Admin</title><rect fill="#000000" fill-opacity="0.00000" height="1625.5234" width="8" x="26.4321" y="81.2969"/><line style="stroke:#181818;stroke-width:0.5;stroke-dasharray:5,5;" x1="30" x2="30" y1="81.2969" y2="1706.8203"/></g></g><g class="participant-lifeline" data-entity-uid="part2" data-qualified-name="GUI" data-source-line="2" id="part2-lifeline"><g><title>GUI</title><rect fill="#000000" fill-opacity="0.00000" height="1625.5234" width="8" x="142.6255" y="81.2969"/><line style="stroke:#181818;stroke-width:0.5;stroke-dasharray:5,5;" x1="146.0132" x2="146.0132" y1="81.2969" y2="1706.8203"/></g></g><g class="participant-lifeline" data-entity-uid="part3" data-qualified-name="Controller" data-source-line="3" id="part3-lifeline"><g><title>Controller</title><rect fill="#000000" fill-opacity="0.00000" height="1625.5234" width="8" x="417.123" y="81.2969"/><line style="stroke:#181818;stroke-width:0.5;stroke-dasharray:5,5;" x1="420.5366" x2="420.5366" y1="81.2969" y2="1706.8203"/></g></g><g class="participant-lifeline" data-entity-uid="part4" data-qualified-name="FotografiaPostgresDAO" data-source-line="4" id="part4-lifeline"><g><title>FotografiaPostgresDAO</title><rect fill="#000000" fill-opacity="0.00000" height="1625.5234" width="8" x="732.3574" y="81.2969"/><line style="stroke:#181818;stroke-width:0.5;stroke-dasharray:5,5;" x1="735.8525" x2="735.8525" y1="81.2969" y2="1706.8203"/></g></g><g class="participant-lifeline" data-entity-uid="part5" data-qualified-name="ContienePostgresDAO" data-source-line="5" id="part5-lifeline"><g><title>ContienePostgresDAO</title><rect fill="#000000" fill-opacity="0.00000" height="1625.5234" width="8" x="915.0674" y="81.2969"/><line style="stroke:#181818;stroke-width:0.5;stroke-dasharray:5,5;" x1="918.8623" x2="918.8623" y1="81.2969" y2="1706.8203"/></g></g><g class="participant-lifeline" data-entity-uid="part6" data-qualified-name="GalleriaPostgresDAO" data-source-line="6" id="part6-lifeline"><g><title>GalleriaPostgresDAO</title><rect fill="#000000" fill-opacity="0.00000" height="1625.5234" width="8" x="1089.1538" y="81.2969"/><line style="stroke:#181818;stroke-width:0.5;stroke-dasharray:5,5;" x1="1092.2725" x2="1092.2725" y1="81.2969" y2="1706.8203"/></g></g><g class="participant-lifeline" data-entity-uid="part7" data-qualified-name="PartecipaPostgresDAO" data-source-line="7" id="part7-lifeline"><g><title>PartecipaPostgresDAO</title><rect fill="#000000" fill-opacity="0.00000" height="1625.5234" width="8" x="1264.8604" y="81.2969"/><line style="stroke:#181818;stroke-width:0.5;stroke-dasharray:5,5;" x1="1268.0352" x2="1268.0352" y1="81.2969" y2="1706.8203"/></g></g><g class="participant-lifeline" data-entity-uid="part8" data-qualified-name="VideoPostgresDAO" data-source-line="8" id="part8-lifeline"><g><title>VideoPostgresDAO</title><rect fill="#000000" fill-opacity="0.00000" height="1625.5234" width="8" x="1433.3105" y="81.2969"/><line style="stroke:#181818;stroke-width:0.5;stroke-dasharray:5,5;" x1="1436.6855" x2="1436.6855" y1="81.2969" y2="1706.8203"/></g></g><g class="participant-lifeline" data-entity-uid="part9" data-qualified-name="UtentePostgresDAO" data-source-line="9" id="part9-lifeline"><g><title>UtentePostgresDAO</title><rect fill="#000000" fill-opacity="0.00000" height="1625.5234" width="8" x="1592.457" y="81.2969"/><line style="stroke:#181818;stroke-width:0.5;stroke-dasharray:5,5;" x1="1595.9355" x2="1595.9355" y1="81.2969" y2="1706.8203"/></g></g><g class="participant participant-head" data-entity-uid="part1" data-qualified-name="Admin" data-source-line="1" id="part1-head"><text fill="#000000" font-family="sans-serif" font-size="14" lengthAdjust="spacing" textLength="44.8643" x="5" y="77.9951">Admin</text><ellipse cx="30.4321" cy="13.5" fill="#E2E2F0" rx="8" ry="8" style="stroke:#181818;stroke-width:0.5;"/><path d="M30.4321,21.5 L30.4321,48.5 M17.4321,29.5 L43.4321,29.5 M30.4321,48.5 L17.4321,63.5 M30.4321,48.5 L43.4321,63.5" fill="none" style="stroke:#181818;stroke-width:0.5;"/></g><g class="participant participant-tail" data-entity-uid="part1" data-qualified-name="Admin" data-source-line="1" id="part1-tail"><text fill="#000000" font-family="sans-serif" font-size="14" lengthAdjust="spacing" textLength="44.8643" x="5" y="1718.8154">Admin</text><ellipse cx="30.4321" cy="1730.6172" fill="#E2E2F0" rx="8" ry="8" style="stroke:#181818;stroke-width:0.5;"/><path d="M30.4321,1738.6172 L30.4321,1765.6172 M17.4321,1746.6172 L43.4321,1746.6172 M30.4321,1765.6172 L17.4321,1780.6172 M30.4321,1765.6172 L43.4321,1780.6172" fill="none" style="stroke:#181818;stroke-width:0.5;"/></g><g class="participant participant-head" data-entity-uid="part2" data-qualified-name="GUI" data-source-line="2" id="part2-head"><rect fill="#E2E2F0" height="30.2969" rx="2.5" ry="2.5" style="stroke:#181818;stroke-width:0.5;" width="39.2246" x="127.0132" y="50"/><text fill="#000000" font-family="sans-serif" font-size="14" lengthAdjust="spacing" textLength="25.2246" x="134.0132" y="69.9951">GUI</text></g><g class="participant participant-tail" data-entity-uid="part2" data-qualified-name="GUI" data-source-line="2" id="part2-tail"><rect fill="#E2E2F0" height="30.2969" rx="2.5" ry="2.5" style="stroke:#181818;stroke-width:0.5;" width="39.2246" x="127.0132" y="1705.8203"/><text fill="#000000" font-family="sans-serif" font-size="14" lengthAdjust="spacing" textLength="25.2246" x="134.0132" y="1725.8154">GUI</text></g><g class="participant participant-head" data-entity-uid="part3" data-qualified-name="Controller" data-source-line="3" id="part3-head"><rect fill="#E2E2F0" height="30.2969" rx="2.5" ry="2.5" style="stroke:#181818;stroke-width:0.5;" width="83.1729" x="379.5366" y="50"/><text fill="#000000" font-family="sans-serif" font-size="14" lengthAdjust="spacing" textLength="69.1729" x="386.5366" y="69.9951">Controller</text></g><g class="participant participant-tail" data-entity-uid="part3" data-qualified-name="Controller" data-source-line="3" id="part3-tail"><rect fill="#E2E2F0" height="30.2969" rx="2.5" ry="2.5" style="stroke:#181818;stroke-width:0.5;" width="83.1729" x="379.5366" y="1705.8203"/><text fill="#000000" font-family="sans-serif" font-size="14" lengthAdjust="spacing" textLength="69.1729" x="386.5366" y="1725.8154">Controller</text></g><g class="participant participant-head" data-entity-uid="part4" data-qualified-name="FotografiaPostgresDAO" data-source-line="4" id="part4-head"><rect fill="#E2E2F0" height="30.2969" rx="2.5" ry="2.5" style="stroke:#181818;stroke-width:0.5;" width="177.0098" x="647.8525" y="50"/><text fill="#000000" font-family="sans-serif" font-size="14" lengthAdjust="spacing" textLength="163.0098" x="654.8525" y="69.9951">FotografiaPostgresDAO</text></g><g class="participant participant-tail" data-entity-uid="part4" data-qualified-name="FotografiaPostgresDAO" data-source-line="4" id="part4-tail"><rect fill="#E2E2F0" height="30.2969" rx="2.5" ry="2.5" style="stroke:#181818;stroke-width:0.5;" width="177.0098" x="647.8525" y="1705.8203"/><text fill="#000000" font-family="sans-serif" font-size="14" lengthAdjust="spacing" textLength="163.0098" x="654.8525" y="1725.8154">FotografiaPostgresDAO</text></g><g class="participant participant-head" data-entity-uid="part5" data-qualified-name="ContienePostgresDAO" data-source-line="5" id="part5-head"><rect fill="#E2E2F0" height="30.2969" rx="2.5" ry="2.5" style="stroke:#181818;stroke-width:0.5;" width="168.4102" x="834.8623" y="50"/><text fill="#000000" font-family="sans-serif" font-size="14" lengthAdjust="spacing" textLength="154.4102" x="841.8623" y="69.9951">ContienePostgresDAO</text></g><g class="participant participant-tail" data-entity-uid="part5" data-qualified-name="ContienePostgresDAO" data-source-line="5" id="part5-tail"><rect fill="#E2E2F0" height="30.2969" rx="2.5" ry="2.5" style="stroke:#181818;stroke-width:0.5;" width="168.4102" x="834.8623" y="1705.8203"/><text fill="#000000" font-family="sans-serif" font-size="14" lengthAdjust="spacing" textLength="154.4102" x="841.8623" y="1725.8154">ContienePostgresDAO</text></g><g class="participant participant-head" data-entity-uid="part6" data-qualified-name="GalleriaPostgresDAO" data-source-line="6" id="part6-head"><rect fill="#E2E2F0" height="30.2969" rx="2.5" ry="2.5" style="stroke:#181818;stroke-width:0.5;" width="159.7627" x="1013.2725" y="50"/><text fill="#000000" font-family="sans-serif" font-size="14" lengthAdjust="spacing" textLength="145.7627" x="1020.2725" y="69.9951">GalleriaPostgresDAO</text></g><g class="participant participant-tail" data-entity-uid="part6" data-qualified-name="GalleriaPostgresDAO" data-source-line="6" id="part6-tail"><rect fill="#E2E2F0" height="30.2969" rx="2.5" ry="2.5" style="stroke:#181818;stroke-width:0.5;" width="159.7627" x="1013.2725" y="1705.8203"/><text fill="#000000" font-family="sans-serif" font-size="14" lengthAdjust="spacing" textLength="145.7627" x="1020.2725" y="1725.8154">GalleriaPostgresDAO</text></g><g class="participant participant-head" data-entity-uid="part7" data-qualified-name="PartecipaPostgresDAO" data-source-line="7" id="part7-head"><rect fill="#E2E2F0" height="30.2969" rx="2.5" ry="2.5" style="stroke:#181818;stroke-width:0.5;" width="171.6504" x="1183.0352" y="50"/><text fill="#000000" font-family="sans-serif" font-size="14" lengthAdjust="spacing" textLength="157.6504" x="1190.0352" y="69.9951">PartecipaPostgresDAO</text></g><g class="participant participant-tail" data-entity-uid="part7" data-qualified-name="PartecipaPostgresDAO" data-source-line="7" id="part7-tail"><rect fill="#E2E2F0" height="30.2969" rx="2.5" ry="2.5" style="stroke:#181818;stroke-width:0.5;" width="171.6504" x="1183.0352" y="1705.8203"/><text fill="#000000" font-family="sans-serif" font-size="14" lengthAdjust="spacing" textLength="157.6504" x="1190.0352" y="1725.8154">PartecipaPostgresDAO</text></g><g class="participant participant-head" data-entity-uid="part8" data-qualified-name="VideoPostgresDAO" data-source-line="8" id="part8-head"><rect fill="#E2E2F0" height="30.2969" rx="2.5" ry="2.5" style="stroke:#181818;stroke-width:0.5;" width="145.25" x="1364.6855" y="50"/><text fill="#000000" font-family="sans-serif" font-size="14" lengthAdjust="spacing" textLength="131.25" x="1371.6855" y="69.9951">VideoPostgresDAO</text></g><g class="participant participant-tail" data-entity-uid="part8" data-qualified-name="VideoPostgresDAO" data-source-line="8" id="part8-tail"><rect fill="#E2E2F0" height="30.2969" rx="2.5" ry="2.5" style="stroke:#181818;stroke-width:0.5;" width="145.25" x="1364.6855" y="1705.8203"/><text fill="#000000" font-family="sans-serif" font-size="14" lengthAdjust="spacing" textLength="131.25" x="1371.6855" y="1725.8154">VideoPostgresDAO</text></g><g class="participant participant-head" data-entity-uid="part9" data-qualified-name="UtentePostgresDAO" data-source-line="9" id="part9-head"><rect fill="#E2E2F0" height="30.2969" rx="2.5" ry="2.5" style="stroke:#181818;stroke-width:0.5;" width="153.043" x="1519.9355" y="50"/><text fill="#000000" font-family="sans-serif" font-size="14" lengthAdjust="spacing" textLength="139.043" x="1526.9355" y="69.9951">UtentePostgresDAO</text></g><g class="participant participant-tail" data-entity-uid="part9" data-qualified-name="UtentePostgresDAO" data-source-line="9" id="part9-tail"><rect fill="#E2E2F0" height="30.2969" rx="2.5" ry="2.5" style="stroke:#181818;stroke-width:0.5;" width="153.043" x="1519.9355" y="1705.8203"/><text fill="#000000" font-family="sans-serif" font-size="14" lengthAdjust="spacing" textLength="139.043" x="1526.9355" y="1725.8154">UtentePostgresDAO</text></g><g class="message" data-entity-1="part1" data-entity-2="part2" data-source-line="11" id="msg1"><polygon fill="#181818" points="134.6255,108.4297,144.6255,112.4297,134.6255,116.4297,138.6255,112.4297" style="stroke:#181818;stroke-width:1;"/><line style="stroke:#181818;stroke-width:1;" x1="30.4321" x2="140.6255" y1="112.4297" y2="112.4297"/><text fill="#000000" font-family="sans-serif" font-size="13" lengthAdjust="spacing" textLength="92.1934" x="37.4321" y="107.3638">sceglie utente</text></g><g class="message" data-entity-1="part2" data-entity-2="part3" data-source-line="13" id="msg2"><polygon fill="#181818" points="409.123,137.5625,419.123,141.5625,409.123,145.5625,413.123,141.5625" style="stroke:#181818;stroke-width:1;"/><line style="stroke:#181818;stroke-width:1;" x1="146.6255" x2="415.123" y1="141.5625" y2="141.5625"/><text fill="#000000" font-family="sans-serif" font-size="13" lengthAdjust="spacing" textLength="250.4976" x="153.6255" y="136.4966">eliminazioneUtenteByAdmin(idUtente)</text></g><g class="message" data-entity-1="part3" data-entity-2="part2" data-source-line="16" id="msg3"><polygon fill="#181818" points="157.6255,190.8281,147.6255,194.8281,157.6255,198.8281,153.6255,194.8281" style="stroke:#181818;stroke-width:1;"/><line style="stroke:#181818;stroke-width:1;stroke-dasharray:2,2;" x1="151.6255" x2="420.123" y1="194.8281" y2="194.8281"/><text fill="#000000" font-family="sans-serif" font-size="13" lengthAdjust="spacing" textLength="40.2632" x="163.6255" y="189.7622">return</text></g><g class="message" data-entity-1="part3" data-entity-2="part3" data-source-line="19" id="msg4"><line style="stroke:#181818;stroke-width:1;" x1="421.123" x2="463.123" y1="238.7656" y2="238.7656"/><line style="stroke:#181818;stroke-width:1;" x1="463.123" x2="463.123" y1="238.7656" y2="251.7656"/><line style="stroke:#181818;stroke-width:1;" x1="422.123" x2="463.123" y1="251.7656" y2="251.7656"/><polygon fill="#181818" points="432.123,247.7656,422.123,251.7656,432.123,255.7656,428.123,251.7656" style="stroke:#181818;stroke-width:1;"/><text fill="#000000" font-family="sans-serif" font-size="13" lengthAdjust="spacing" textLength="105.8916" x="428.123" y="233.6997">getUtenteByID()</text></g><path d="M117.0132,266.7656 L181.4561,266.7656 L181.4561,273.8984 L171.4561,283.8984 L117.0132,283.8984 L117.0132,266.7656" fill="#EEEEEE" style="stroke:#000000;stroke-width:1.5;"/><rect fill="none" height="1423.0547" style="stroke:#000000;stroke-width:1.5;" width="1575.9653" x="117.0132" y="266.7656"/><text fill="#000000" font-family="sans-serif" font-size="13" font-weight="700" lengthAdjust="spacing" textLength="19.4429" x="132.0132" y="279.8325">alt</text><text fill="#000000" font-family="sans-serif" font-size="11" font-weight="700" lengthAdjust="spacing" textLength="127.6816" x="196.4561" y="278.9761">[utente non trovato]</text><g class="message" data-entity-1="part3" data-entity-2="part2" data-source-line="22" id="msg5"><polygon fill="#181818" points="157.6255,301.0313,147.6255,305.0313,157.6255,309.0313,153.6255,305.0313" style="stroke:#181818;stroke-width:1;"/><line style="stroke:#181818;stroke-width:1;stroke-dasharray:2,2;" x1="151.6255" x2="420.123" y1="305.0313" y2="305.0313"/><text fill="#000000" font-family="sans-serif" font-size="13" lengthAdjust="spacing" textLength="40.2632" x="163.6255" y="299.9653">return</text></g><line style="stroke:#000000;stroke-width:1;stroke-dasharray:2,2;" x1="117.0132" x2="1692.9785" y1="314.0313" y2="314.0313"/><text fill="#000000" font-family="sans-serif" font-size="11" font-weight="700" lengthAdjust="spacing" textLength="100.6328" x="122.0132" y="324.2417">[utente trovato]</text><path d="M319.5366,334.8359 L396.1606,334.8359 L396.1606,341.9688 L386.1606,351.9688 L319.5366,351.9688 L319.5366,334.8359" fill="#EEEEEE" style="stroke:#000000;stroke-width:1.5;"/><rect fill="none" height="1347.9844" style="stroke:#000000;stroke-width:1.5;" width="1363.4419" x="319.5366" y="334.8359"/><text fill="#000000" font-family="sans-serif" font-size="13" font-weight="700" lengthAdjust="spacing" textLength="31.624" x="334.5366" y="347.9028">loop</text><text fill="#000000" font-family="sans-serif" font-size="11" font-weight="700" lengthAdjust="spacing" textLength="161.8364" x="411.1606" y="347.0464">[per ogni foto dell'utente]</text><path d="M369.5366,358.9688 L433.9795,358.9688 L433.9795,366.1016 L423.9795,376.1016 L369.5366,376.1016 L369.5366,358.9688" fill="#EEEEEE" style="stroke:#000000;stroke-width:1.5;"/><rect fill="none" height="46.2656" style="stroke:#000000;stroke-width:1.5;" width="465.3257" x="369.5366" y="358.9688"/><text fill="#000000" font-family="sans-serif" font-size="13" font-weight="700" lengthAdjust="spacing" textLength="19.4429" x="384.5366" y="372.0356">alt</text><text fill="#000000" font-family="sans-serif" font-size="11" font-weight="700" lengthAdjust="spacing" textLength="125.6191" x="448.9795" y="371.1792">[foto parte di video]</text><g class="message" data-entity-1="part3" data-entity-2="part4" data-source-line="29" id="msg6"><polygon fill="#181818" points="724.3574,393.2344,734.3574,397.2344,724.3574,401.2344,728.3574,397.2344" style="stroke:#181818;stroke-width:1;"/><line style="stroke:#181818;stroke-width:1;" x1="421.123" x2="730.3574" y1="397.2344" y2="397.2344"/><text fill="#000000" font-family="sans-serif" font-size="13" lengthAdjust="spacing" textLength="169.5332" x="428.123" y="392.1685">updateDataEliminazione()</text></g><path d="M329.5366,419.2344 L393.9795,419.2344 L393.9795,426.3672 L383.9795,436.3672 L329.5366,436.3672 L329.5366,419.2344" fill="#EEEEEE" style="stroke:#000000;stroke-width:1.5;"/><rect fill="none" height="624.0625" style="stroke:#000000;stroke-width:1.5;" width="693.7358" x="329.5366" y="419.2344"/><text fill="#000000" font-family="sans-serif" font-size="13" font-weight="700" lengthAdjust="spacing" textLength="19.4429" x="344.5366" y="432.3013">alt</text><text fill="#000000" font-family="sans-serif" font-size="11" font-weight="700" lengthAdjust="spacing" textLength="163.6841" x="408.9795" y="431.4448">[foto in galleria condivisa]</text><path d="M339.5366,443.3672 L403.9795,443.3672 L403.9795,450.5 L393.9795,460.5 L339.5366,460.5 L339.5366,443.3672" fill="#EEEEEE" style="stroke:#000000;stroke-width:1.5;"/><rect fill="none" height="490.5313" style="stroke:#000000;stroke-width:1.5;" width="406.354" x="339.5366" y="443.3672"/><text fill="#000000" font-family="sans-serif" font-size="13" font-weight="700" lengthAdjust="spacing" textLength="19.4429" x="354.5366" y="456.4341">alt</text><text fill="#000000" font-family="sans-serif" font-size="11" font-weight="700" lengthAdjust="spacing" textLength="272.0298" x="418.9795" y="455.5776">[nessun utente nella foto AND !photoStays]</text><g class="message" data-entity-1="part3" data-entity-2="part3" data-source-line="35" id="msg7"><line style="stroke:#181818;stroke-width:1;" x1="421.123" x2="463.123" y1="481.6328" y2="481.6328"/><line style="stroke:#181818;stroke-width:1;" x1="463.123" x2="463.123" y1="481.6328" y2="494.6328"/><line style="stroke:#181818;stroke-width:1;" x1="422.123" x2="463.123" y1="494.6328" y2="494.6328"/><polygon fill="#181818" points="432.123,490.6328,422.123,494.6328,432.123,498.6328,428.123,494.6328" style="stroke:#181818;stroke-width:1;"/><text fill="#000000" font-family="sans-serif" font-size="13" lengthAdjust="spacing" textLength="177.4741" x="428.123" y="476.5669">aggiungi a fotoDaEliminare</text></g><line style="stroke:#000000;stroke-width:1;stroke-dasharray:2,2;" x1="339.5366" x2="745.8906" y1="503.6328" y2="503.6328"/><path d="M349.5366,511.6328 L426.1606,511.6328 L426.1606,518.7656 L416.1606,528.7656 L349.5366,528.7656 L349.5366,511.6328" fill="#EEEEEE" style="stroke:#000000;stroke-width:1.5;"/><rect fill="none" height="283.0625" style="stroke:#000000;stroke-width:1.5;" width="386.354" x="349.5366" y="511.6328"/><text fill="#000000" font-family="sans-serif" font-size="13" font-weight="700" lengthAdjust="spacing" textLength="31.624" x="364.5366" y="524.6997">loop</text><text fill="#000000" font-family="sans-serif" font-size="11" font-weight="700" lengthAdjust="spacing" textLength="174.7163" x="441.1606" y="523.8433">[per ogni galleria condivisa]</text><path d="M359.5366,535.7656 L423.9795,535.7656 L423.9795,542.8984 L413.9795,552.8984 L359.5366,552.8984 L359.5366,535.7656" fill="#EEEEEE" style="stroke:#000000;stroke-width:1.5;"/><rect fill="none" height="134.5313" style="stroke:#000000;stroke-width:1.5;" width="366.354" x="359.5366" y="535.7656"/><text fill="#000000" font-family="sans-serif" font-size="13" font-weight="700" lengthAdjust="spacing" textLength="19.4429" x="374.5366" y="548.8325">alt</text><text fill="#000000" font-family="sans-serif" font-size="11" font-weight="700" lengthAdjust="spacing" textLength="207.9258" x="438.9795" y="547.9761">[partecipante e' soggetto in foto]</text><g class="message" data-entity-1="part3" data-entity-2="part3" data-source-line="40" id="msg8"><line style="stroke:#181818;stroke-width:1;" x1="421.123" x2="463.123" y1="574.0313" y2="574.0313"/><line style="stroke:#181818;stroke-width:1;" x1="463.123" x2="463.123" y1="574.0313" y2="587.0313"/><line style="stroke:#181818;stroke-width:1;" x1="422.123" x2="463.123" y1="587.0313" y2="587.0313"/><polygon fill="#181818" points="432.123,583.0313,422.123,587.0313,432.123,591.0313,428.123,587.0313" style="stroke:#181818;stroke-width:1;"/><text fill="#000000" font-family="sans-serif" font-size="13" lengthAdjust="spacing" textLength="135.8271" x="428.123" y="568.9653">validSoggetto = true</text></g><path d="M369.5366,602.0313 L456.4883,602.0313 L456.4883,609.1641 L446.4883,619.1641 L369.5366,619.1641 L369.5366,602.0313" fill="#EEEEEE" style="stroke:#000000;stroke-width:1.5;"/><rect fill="none" height="61.2656" style="stroke:#000000;stroke-width:1.5;" width="346.354" x="369.5366" y="602.0313"/><text fill="#000000" font-family="sans-serif" font-size="13" font-weight="700" lengthAdjust="spacing" textLength="41.9517" x="384.5366" y="615.0981">break</text><line style="stroke:#000000;stroke-width:1;stroke-dasharray:2,2;" x1="369.5366" x2="715.8906" y1="620.1641" y2="620.1641"/><g class="message" data-entity-1="part3" data-entity-2="part3" data-source-line="43" id="msg9"><line style="stroke:#181818;stroke-width:1;" x1="421.123" x2="463.123" y1="642.2969" y2="642.2969"/><line style="stroke:#181818;stroke-width:1;" x1="463.123" x2="463.123" y1="642.2969" y2="655.2969"/><line style="stroke:#181818;stroke-width:1;" x1="422.123" x2="463.123" y1="655.2969" y2="655.2969"/><polygon fill="#181818" points="432.123,651.2969,422.123,655.2969,432.123,659.2969,428.123,655.2969" style="stroke:#181818;stroke-width:1;"/><text fill="#000000" font-family="sans-serif" font-size="13" lengthAdjust="spacing" textLength="275.7676" x="428.123" y="637.231">galleriaDaCuiTogliereLaFoto.add(galCond)</text></g><path d="M369.5366,684.2969 L433.9795,684.2969 L433.9795,691.4297 L423.9795,701.4297 L369.5366,701.4297 L369.5366,684.2969" fill="#EEEEEE" style="stroke:#000000;stroke-width:1.5;"/><rect fill="none" height="103.3984" style="stroke:#000000;stroke-width:1.5;" width="257.0996" x="369.5366" y="684.2969"/><text fill="#000000" font-family="sans-serif" font-size="13" font-weight="700" lengthAdjust="spacing" textLength="19.4429" x="384.5366" y="697.3638">alt</text><text fill="#000000" font-family="sans-serif" font-size="11" font-weight="700" lengthAdjust="spacing" textLength="80.4536" x="448.9795" y="696.5073">[photoStays]</text><g class="message" data-entity-1="part3" data-entity-2="part3" data-source-line="48" id="msg10"><line style="stroke:#181818;stroke-width:1;" x1="421.123" x2="463.123" y1="722.5625" y2="722.5625"/><line style="stroke:#181818;stroke-width:1;" x1="463.123" x2="463.123" y1="722.5625" y2="735.5625"/><line style="stroke:#181818;stroke-width:1;" x1="422.123" x2="463.123" y1="735.5625" y2="735.5625"/><polygon fill="#181818" points="432.123,731.5625,422.123,735.5625,432.123,739.5625,428.123,735.5625" style="stroke:#181818;stroke-width:1;"/><text fill="#000000" font-family="sans-serif" font-size="13" lengthAdjust="spacing" textLength="186.5132" x="428.123" y="717.4966">aggiungi a fotoDaPreservare</text></g><line style="stroke:#000000;stroke-width:1;stroke-dasharray:2,2;" x1="369.5366" x2="626.6362" y1="744.5625" y2="744.5625"/><g class="message" data-entity-1="part3" data-entity-2="part3" data-source-line="50" id="msg11"><line style="stroke:#181818;stroke-width:1;" x1="421.123" x2="463.123" y1="766.6953" y2="766.6953"/><line style="stroke:#181818;stroke-width:1;" x1="463.123" x2="463.123" y1="766.6953" y2="779.6953"/><line style="stroke:#181818;stroke-width:1;" x1="422.123" x2="463.123" y1="779.6953" y2="779.6953"/><polygon fill="#181818" points="432.123,775.6953,422.123,779.6953,432.123,783.6953,428.123,779.6953" style="stroke:#181818;stroke-width:1;"/><text fill="#000000" font-family="sans-serif" font-size="13" lengthAdjust="spacing" textLength="177.4741" x="428.123" y="761.6294">aggiungi a fotoDaEliminare</text></g><line style="stroke:#000000;stroke-width:1;stroke-dasharray:2,2;" x1="339.5366" x2="745.8906" y1="802.6953" y2="802.6953"/><text fill="#000000" font-family="sans-serif" font-size="11" font-weight="700" lengthAdjust="spacing" textLength="195.2769" x="344.5366" y="812.9058">[foto NON in galleria condivisa]</text><path d="M369.5366,823.5 L433.9795,823.5 L433.9795,830.6328 L423.9795,840.6328 L369.5366,840.6328 L369.5366,823.5" fill="#EEEEEE" style="stroke:#000000;stroke-width:1.5;"/><rect fill="none" height="103.3984" style="stroke:#000000;stroke-width:1.5;" width="184.4443" x="369.5366" y="823.5"/><text fill="#000000" font-family="sans-serif" font-size="13" font-weight="700" lengthAdjust="spacing" textLength="19.4429" x="384.5366" y="836.5669">alt</text><text fill="#000000" font-family="sans-serif" font-size="11" font-weight="700" lengthAdjust="spacing" textLength="80.4536" x="448.9795" y="835.7104">[photoStays]</text><g class="message" data-entity-1="part3" data-entity-2="part3" data-source-line="58" id="msg12"><line style="stroke:#181818;stroke-width:1;" x1="421.123" x2="463.123" y1="861.7656" y2="861.7656"/><line style="stroke:#181818;stroke-width:1;" x1="463.123" x2="463.123" y1="861.7656" y2="874.7656"/><line style="stroke:#181818;stroke-width:1;" x1="422.123" x2="463.123" y1="874.7656" y2="874.7656"/><polygon fill="#181818" points="432.123,870.7656,422.123,874.7656,432.123,878.7656,428.123,874.7656" style="stroke:#181818;stroke-width:1;"/><text fill="#000000" font-family="sans-serif" font-size="13" lengthAdjust="spacing" textLength="113.8579" x="428.123" y="856.6997">fotoDaPreservare</text></g><line style="stroke:#000000;stroke-width:1;stroke-dasharray:2,2;" x1="369.5366" x2="553.981" y1="883.7656" y2="883.7656"/><g class="message" data-entity-1="part3" data-entity-2="part3" data-source-line="60" id="msg13"><line style="stroke:#181818;stroke-width:1;" x1="421.123" x2="463.123" y1="905.8984" y2="905.8984"/><line style="stroke:#181818;stroke-width:1;" x1="463.123" x2="463.123" y1="905.8984" y2="918.8984"/><line style="stroke:#181818;stroke-width:1;" x1="422.123" x2="463.123" y1="918.8984" y2="918.8984"/><polygon fill="#181818" points="432.123,914.8984,422.123,918.8984,432.123,922.8984,428.123,918.8984" style="stroke:#181818;stroke-width:1;"/><text fill="#000000" font-family="sans-serif" font-size="13" lengthAdjust="spacing" textLength="104.8188" x="428.123" y="900.8325">fotoDaEliminare</text></g><path d="M369.5366,947.8984 L446.1606,947.8984 L446.1606,955.0313 L436.1606,965.0313 L369.5366,965.0313 L369.5366,947.8984" fill="#EEEEEE" style="stroke:#000000;stroke-width:1.5;"/><rect fill="none" height="88.3984" style="stroke:#000000;stroke-width:1.5;" width="643.7358" x="369.5366" y="947.8984"/><text fill="#000000" font-family="sans-serif" font-size="13" font-weight="700" lengthAdjust="spacing" textLength="31.624" x="384.5366" y="960.9653">loop</text><text fill="#000000" font-family="sans-serif" font-size="11" font-weight="700" lengthAdjust="spacing" textLength="220.8916" x="461.1606" y="960.1089">[per ogni galleria da cui rimuovere]</text><g class="message" data-entity-1="part3" data-entity-2="part3" data-source-line="67" id="msg14"><line style="stroke:#181818;stroke-width:1;" x1="421.123" x2="463.123" y1="986.1641" y2="986.1641"/><line style="stroke:#181818;stroke-width:1;" x1="463.123" x2="463.123" y1="986.1641" y2="999.1641"/><line style="stroke:#181818;stroke-width:1;" x1="422.123" x2="463.123" y1="999.1641" y2="999.1641"/><polygon fill="#181818" points="432.123,995.1641,422.123,999.1641,432.123,1003.1641,428.123,999.1641" style="stroke:#181818;stroke-width:1;"/><text fill="#000000" font-family="sans-serif" font-size="13" lengthAdjust="spacing" textLength="217.0581" x="428.123" y="981.0981">rimuovi foto da galleria condivisa</text></g><g class="message" data-entity-1="part3" data-entity-2="part5" data-source-line="68" id="msg15"><polygon fill="#181818" points="907.0674,1024.2969,917.0674,1028.2969,907.0674,1032.2969,911.0674,1028.2969" style="stroke:#181818;stroke-width:1;"/><line style="stroke:#181818;stroke-width:1;" x1="421.123" x2="913.0674" y1="1028.2969" y2="1028.2969"/><text fill="#000000" font-family="sans-serif" font-size="13" lengthAdjust="spacing" textLength="147.7417" x="428.123" y="1023.231">deleteFotoDaGalleria()</text></g><path d="M369.5366,1057.2969 L446.1606,1057.2969 L446.1606,1064.4297 L436.1606,1074.4297 L369.5366,1074.4297 L369.5366,1057.2969" fill="#EEEEEE" style="stroke:#000000;stroke-width:1.5;"/><rect fill="none" height="46.2656" style="stroke:#000000;stroke-width:1.5;" width="465.3257" x="369.5366" y="1057.2969"/><text fill="#000000" font-family="sans-serif" font-size="13" font-weight="700" lengthAdjust="spacing" textLength="31.624" x="384.5366" y="1070.3638">loop</text><text fill="#000000" font-family="sans-serif" font-size="11" font-weight="700" lengthAdjust="spacing" textLength="110.1934" x="461.1606" y="1069.5073">[fotoDaEliminare]</text><g class="message" data-entity-1="part3" data-entity-2="part4" data-source-line="75" id="msg16"><polygon fill="#181818" points="724.3574,1091.5625,734.3574,1095.5625,724.3574,1099.5625,728.3574,1095.5625" style="stroke:#181818;stroke-width:1;"/><line style="stroke:#181818;stroke-width:1;" x1="421.123" x2="730.3574" y1="1095.5625" y2="1095.5625"/><text fill="#000000" font-family="sans-serif" font-size="13" lengthAdjust="spacing" textLength="117.2983" x="428.123" y="1090.4966">deleteFotografia()</text></g><path d="M369.5366,1117.5625 L446.1606,1117.5625 L446.1606,1124.6953 L436.1606,1134.6953 L369.5366,1134.6953 L369.5366,1117.5625" fill="#EEEEEE" style="stroke:#000000;stroke-width:1.5;"/><rect fill="none" height="46.2656" style="stroke:#000000;stroke-width:1.5;" width="465.3257" x="369.5366" y="1117.5625"/><text fill="#000000" font-family="sans-serif" font-size="13" font-weight="700" lengthAdjust="spacing" textLength="31.624" x="384.5366" y="1130.6294">loop</text><text fill="#000000" font-family="sans-serif" font-size="11" font-weight="700" lengthAdjust="spacing" textLength="119.625" x="461.1606" y="1129.7729">[fotoDaPreservare]</text><g class="message" data-entity-1="part3" data-entity-2="part4" data-source-line="80" id="msg17"><polygon fill="#181818" points="724.3574,1151.8281,734.3574,1155.8281,724.3574,1159.8281,728.3574,1155.8281" style="stroke:#181818;stroke-width:1;"/><line style="stroke:#181818;stroke-width:1;" x1="421.123" x2="730.3574" y1="1155.8281" y2="1155.8281"/><text fill="#000000" font-family="sans-serif" font-size="13" lengthAdjust="spacing" textLength="99.4741" x="428.123" y="1150.7622">updateAutore()</text></g><path d="M369.5366,1177.8281 L446.1606,1177.8281 L446.1606,1184.9609 L436.1606,1194.9609 L369.5366,1194.9609 L369.5366,1177.8281" fill="#EEEEEE" style="stroke:#000000;stroke-width:1.5;"/><rect fill="none" height="88.3984" style="stroke:#000000;stroke-width:1.5;" width="813.4985" x="369.5366" y="1177.8281"/><text fill="#000000" font-family="sans-serif" font-size="13" font-weight="700" lengthAdjust="spacing" textLength="31.624" x="384.5366" y="1190.895">loop</text><text fill="#000000" font-family="sans-serif" font-size="11" font-weight="700" lengthAdjust="spacing" textLength="187.5801" x="461.1606" y="1190.0386">[gallerie condivise possedute]</text><g class="message" data-entity-1="part3" data-entity-2="part6" data-source-line="85" id="msg18"><polygon fill="#181818" points="1081.1538,1212.0938,1091.1538,1216.0938,1081.1538,1220.0938,1085.1538,1216.0938" style="stroke:#181818;stroke-width:1;"/><line style="stroke:#181818;stroke-width:1;" x1="421.123" x2="1087.1538" y1="1216.0938" y2="1216.0938"/><text fill="#000000" font-family="sans-serif" font-size="13" lengthAdjust="spacing" textLength="98.395" x="428.123" y="1211.0278">updateOwner()</text></g><g class="message" data-entity-1="part3" data-entity-2="part3" data-source-line="86" id="msg19"><line style="stroke:#181818;stroke-width:1;" x1="421.123" x2="463.123" y1="1245.2266" y2="1245.2266"/><line style="stroke:#181818;stroke-width:1;" x1="463.123" x2="463.123" y1="1245.2266" y2="1258.2266"/><line style="stroke:#181818;stroke-width:1;" x1="422.123" x2="463.123" y1="1258.2266" y2="1258.2266"/><polygon fill="#181818" points="432.123,1254.2266,422.123,1258.2266,432.123,1262.2266,428.123,1258.2266" style="stroke:#181818;stroke-width:1;"/><text fill="#000000" font-family="sans-serif" font-size="13" lengthAdjust="spacing" textLength="225.6338" x="428.123" y="1240.1606">rimuovi newOwner da partecipanti</text></g><path d="M369.5366,1280.2266 L446.1606,1280.2266 L446.1606,1287.3594 L436.1606,1297.3594 L369.5366,1297.3594 L369.5366,1280.2266" fill="#EEEEEE" style="stroke:#000000;stroke-width:1.5;"/><rect fill="none" height="88.3984" style="stroke:#000000;stroke-width:1.5;" width="995.1489" x="369.5366" y="1280.2266"/><text fill="#000000" font-family="sans-serif" font-size="13" font-weight="700" lengthAdjust="spacing" textLength="31.624" x="384.5366" y="1293.2935">loop</text><text fill="#000000" font-family="sans-serif" font-size="11" font-weight="700" lengthAdjust="spacing" textLength="247.6772" x="461.1606" y="1292.437">[gallerie condivise utente partecipante]</text><g class="message" data-entity-1="part3" data-entity-2="part3" data-source-line="91" id="msg20"><line style="stroke:#181818;stroke-width:1;" x1="421.123" x2="463.123" y1="1318.4922" y2="1318.4922"/><line style="stroke:#181818;stroke-width:1;" x1="463.123" x2="463.123" y1="1318.4922" y2="1331.4922"/><line style="stroke:#181818;stroke-width:1;" x1="422.123" x2="463.123" y1="1331.4922" y2="1331.4922"/><polygon fill="#181818" points="432.123,1327.4922,422.123,1331.4922,432.123,1335.4922,428.123,1331.4922" style="stroke:#181818;stroke-width:1;"/><text fill="#000000" font-family="sans-serif" font-size="13" lengthAdjust="spacing" textLength="301.2344" x="428.123" y="1313.4263">rimuovi utente come partecipante in memoria</text></g><g class="message" data-entity-1="part3" data-entity-2="part7" data-source-line="92" id="msg21"><polygon fill="#181818" points="1256.8604,1356.625,1266.8604,1360.625,1256.8604,1364.625,1260.8604,1360.625" style="stroke:#181818;stroke-width:1;"/><line style="stroke:#181818;stroke-width:1;" x1="421.123" x2="1262.8604" y1="1360.625" y2="1360.625"/><text fill="#000000" font-family="sans-serif" font-size="13" lengthAdjust="spacing" textLength="133.6563" x="428.123" y="1355.5591">deletePartecipante()</text></g><path d="M349.5366,1382.625 L426.1606,1382.625 L426.1606,1389.7578 L416.1606,1399.7578 L349.5366,1399.7578 L349.5366,1382.625" fill="#EEEEEE" style="stroke:#000000;stroke-width:1.5;"/><rect fill="none" height="221.9297" style="stroke:#000000;stroke-width:1.5;" width="1190.3989" x="349.5366" y="1382.625"/><text fill="#000000" font-family="sans-serif" font-size="13" font-weight="700" lengthAdjust="spacing" textLength="31.624" x="364.5366" y="1395.6919">loop</text><text fill="#000000" font-family="sans-serif" font-size="11" font-weight="700" lengthAdjust="spacing" textLength="125.2485" x="441.1606" y="1394.8354">[gallerie possedute]</text><path d="M359.5366,1406.7578 L423.9795,1406.7578 L423.9795,1413.8906 L413.9795,1423.8906 L359.5366,1423.8906 L359.5366,1406.7578" fill="#EEEEEE" style="stroke:#000000;stroke-width:1.5;"/><rect fill="none" height="190.7969" style="stroke:#000000;stroke-width:1.5;" width="1170.3989" x="359.5366" y="1406.7578"/><text fill="#000000" font-family="sans-serif" font-size="13" font-weight="700" lengthAdjust="spacing" textLength="19.4429" x="374.5366" y="1419.8247">alt</text><text fill="#000000" font-family="sans-serif" font-size="11" font-weight="700" lengthAdjust="spacing" textLength="105.1445" x="438.9795" y="1418.9683">[galleria privata]</text><path d="M369.5366,1430.8906 L446.1606,1430.8906 L446.1606,1438.0234 L436.1606,1448.0234 L369.5366,1448.0234 L369.5366,1430.8906" fill="#EEEEEE" style="stroke:#000000;stroke-width:1.5;"/><rect fill="none" height="88.3984" style="stroke:#000000;stroke-width:1.5;" width="1150.3989" x="369.5366" y="1430.8906"/><text fill="#000000" font-family="sans-serif" font-size="13" font-weight="700" lengthAdjust="spacing" textLength="31.624" x="384.5366" y="1443.9575">loop</text><text fill="#000000" font-family="sans-serif" font-size="11" font-weight="700" lengthAdjust="spacing" textLength="158.2378" x="461.1606" y="1443.1011">[video in galleria privata]</text><g class="message" data-entity-1="part3" data-entity-2="part3" data-source-line="100" id="msg22"><line style="stroke:#181818;stroke-width:1;" x1="421.123" x2="463.123" y1="1469.1563" y2="1469.1563"/><line style="stroke:#181818;stroke-width:1;" x1="463.123" x2="463.123" y1="1469.1563" y2="1482.1563"/><line style="stroke:#181818;stroke-width:1;" x1="422.123" x2="463.123" y1="1482.1563" y2="1482.1563"/><polygon fill="#181818" points="432.123,1478.1563,422.123,1482.1563,432.123,1486.1563,428.123,1482.1563" style="stroke:#181818;stroke-width:1;"/><text fill="#000000" font-family="sans-serif" font-size="13" lengthAdjust="spacing" textLength="165.6611" x="428.123" y="1464.0903">elimina video in memoria</text></g><g class="message" data-entity-1="part3" data-entity-2="part8" data-source-line="101" id="msg23"><polygon fill="#181818" points="1425.3105,1507.2891,1435.3105,1511.2891,1425.3105,1515.2891,1429.3105,1511.2891" style="stroke:#181818;stroke-width:1;"/><line style="stroke:#181818;stroke-width:1;" x1="421.123" x2="1431.3105" y1="1511.2891" y2="1511.2891"/><text fill="#000000" font-family="sans-serif" font-size="13" lengthAdjust="spacing" textLength="87.8071" x="428.123" y="1506.2231">deleteVideo()</text></g><g class="message" data-entity-1="part3" data-entity-2="part3" data-source-line="103" id="msg24"><line style="stroke:#181818;stroke-width:1;" x1="421.123" x2="463.123" y1="1547.4219" y2="1547.4219"/><line style="stroke:#181818;stroke-width:1;" x1="463.123" x2="463.123" y1="1547.4219" y2="1560.4219"/><line style="stroke:#181818;stroke-width:1;" x1="422.123" x2="463.123" y1="1560.4219" y2="1560.4219"/><polygon fill="#181818" points="432.123,1556.4219,422.123,1560.4219,432.123,1564.4219,428.123,1560.4219" style="stroke:#181818;stroke-width:1;"/><text fill="#000000" font-family="sans-serif" font-size="13" lengthAdjust="spacing" textLength="200.0464" x="428.123" y="1542.356">elimina gal privata in memoria</text></g><g class="message" data-entity-1="part3" data-entity-2="part6" data-source-line="104" id="msg25"><polygon fill="#181818" points="1081.1538,1585.5547,1091.1538,1589.5547,1081.1538,1593.5547,1085.1538,1589.5547" style="stroke:#181818;stroke-width:1;"/><line style="stroke:#181818;stroke-width:1;" x1="421.123" x2="1087.1538" y1="1589.5547" y2="1589.5547"/><text fill="#000000" font-family="sans-serif" font-size="13" lengthAdjust="spacing" textLength="101.2832" x="428.123" y="1584.4888">deleteGalleria()</text></g><g class="message" data-entity-1="part3" data-entity-2="part9" data-source-line="109" id="msg26"><polygon fill="#181818" points="1584.457,1628.6875,1594.457,1632.6875,1584.457,1636.6875,1588.457,1632.6875" style="stroke:#181818;stroke-width:1;"/><line style="stroke:#181818;stroke-width:1;" x1="421.123" x2="1590.457" y1="1632.6875" y2="1632.6875"/><text fill="#000000" font-family="sans-serif" font-size="13" lengthAdjust="spacing" textLength="95.0435" x="428.123" y="1627.6216">deleteUtente()</text></g><g class="message" data-entity-1="part3" data-entity-2="part3" data-source-line="111" id="msg27"><line style="stroke:#181818;stroke-width:1;" x1="421.123" x2="463.123" y1="1661.8203" y2="1661.8203"/><line style="stroke:#181818;stroke-width:1;" x1="463.123" x2="463.123" y1="1661.8203" y2="1674.8203"/><line style="stroke:#181818;stroke-width:1;" x1="422.123" x2="463.123" y1="1674.8203" y2="1674.8203"/><polygon fill="#181818" points="432.123,1670.8203,422.123,1674.8203,432.123,1678.8203,428.123,1674.8203" style="stroke:#181818;stroke-width:1;"/><text fill="#000000" font-family="sans-serif" font-size="13" lengthAdjust="spacing" textLength="178.604" x="428.123" y="1656.7544">rimuovi utente da memoria</text></g><?plantuml-src hLTDZvim4BtpAznJaiFs1rHg9HhO22aBA1zxwCqDizGgiH6OhBQ_lcE32GHCI5KEgu1ddj-CtynuwKcAWhZ9cN4dfuLa9vPJBidc6FJUruBBGcGP5BtFpqAAjA1lZCQYb6a1fUT60qS676ph6wf0xVun_WRrssRmoX8GjiMZ12vxUpiwLlBqJOL8lf3o16d6W5JQqd7KLroyneisa37qeN-Ou50ZVl_GC4kMrEyhnw6PR4189jAKIa72A2HKfvRWqu5yQhSlG5O5To0heJ4TsDwGIK4Q3e6tNDNsdSsvu0IjBqX0BztRMgthxHj_uziwBz3dYQo3zJOYpz4XKg_jOYP4JdB45Ibdv0tbG1B8ieL99-ayYgIsK2S4967aeiwkPpCCVbHYIB_A4oh1evBwdUF1X7IXW2SM3gY1j94UEGcUi0ihgJFWekmvb6N5s_nYUBJ6S4EFVCf_uS-zf1_bmFdEIT8qPHLF6QdXF1D80GCaTK3EA7x_04P28fP7HPQRubA1mOAKA5oGTNOK9QlpdSWkD6F9te1zHKrLC8drim3wssgXe_z7AYOZ7brNx21KhHUmfKfLdscIB74TxPELVNEKaEsxOqtij2WU5KQCgeVYCgQCk_dvFmAqHZpug7k9BW_L_XueitylfBj9iYReBkX4IGu2l_sm80Kx2zsMI49D7lf8bl95yrF5b7ybBZ2o-mJnsiaqOpgd9mpHRaOsmc9R1mdFEYjcQ4zrszvBFKFyRV0IXEwF80fzooYPolgykN3bMQzsE8vGSZUR8Dg5xeiV8XttU8XsqzGiAdjaPhaLthbWcjV6tMxzNU2JEDhlVUzuyCbo7OLUy1hi_TMGd15NUyX0Sb6MaE3KcY0wSljgQKRl78gR4xR9xgew3k_QKIclCrxOLB2xu2MgHH6xkuE_3k968tF2RCPoTvGv3rPA0t4IvpwEwbvdE0jCq0Jas0srrM7SWPjruYw9Ty6hUt0dWXy_MTL3srhF2uQtk95Egv7qlQlNcutzWqsokHbV0SVIDOvpUszlKwONbYjdpY2UGGr3DD5D4PnJ5pM_YUOtj_TXEOU7lhpx-m_-RsbthrVClVynWMD9cl2TbYR--Gi0?></g></svg>